<?xml version="1.0" encoding="UTF-8" standalone="no"?>
<!-- Created with Inkscape (http://www.inkscape.org/) -->

<svg
   xmlns:dc="http://purl.org/dc/elements/1.1/"
   xmlns:cc="http://creativecommons.org/ns#"
   xmlns:rdf="http://www.w3.org/1999/02/22-rdf-syntax-ns#"
   xmlns:svg="http://www.w3.org/2000/svg"
   xmlns="http://www.w3.org/2000/svg"
   xmlns:sodipodi="http://sodipodi.sourceforge.net/DTD/sodipodi-0.dtd"
   xmlns:inkscape="http://www.inkscape.org/namespaces/inkscape"
   width="500"
   height="500"
   viewBox="0 0 132.29166 132.29167"
   version="1.1"
   id="svg5"
   inkscape:version="0.92.3 (2405546, 2018-03-11)"
   sodipodi:docname="arrows-1.svg">
  <metadata
     id="metadata7">
    <rdf:RDF>
      <cc:Work
         rdf:about="">
        <dc:format>image/svg+xml</dc:format>
        <dc:type
           rdf:resource="http://purl.org/dc/dcmitype/StillImage" />
        <dc:title></dc:title>
      </cc:Work>
    </rdf:RDF>
  </metadata>
  <sodipodi:namedview
     id="namedview7"
     pagecolor="#ffffff"
     bordercolor="#666666"
     borderopacity="1.0"
     inkscape:pageshadow="2"
     inkscape:pageopacity="0.0"
     inkscape:pagecheckerboard="0"
     inkscape:document-units="px"
     showgrid="true"
     units="px"
     inkscape:zoom="1.233733"
     inkscape:cx="199.26785"
     inkscape:cy="255.76672"
     inkscape:window-width="1366"
     inkscape:window-height="713"
     inkscape:window-x="0"
     inkscape:window-y="0"
     inkscape:window-maximized="1"
     inkscape:current-layer="layer1">
    <inkscape:grid
       type="xygrid"
       id="grid824"
       spacingx="2.6458333"
       spacingy="2.6458333"
       empspacing="4" />
  </sodipodi:namedview>
  <defs
     id="defs2" />
  <g
     inkscape:label="Layer 1"
     inkscape:groupmode="layer"
     id="layer1">
    <path
       style="fill:#000000;stroke:#000000;stroke-width:0.13229166;stroke-linecap:round;stroke-linejoin:round;stroke-opacity:0.05;fill-opacity:1"
       d="M 5.2916664,10.583333 H 21.166666 V 5.2916664 c 2.645833,0 10.583333,5.2916666 10.583333,7.9374996 0,2.645833 -7.9375,7.9375 -10.583333,7.9375 V 15.874999 H 5.2916664 Z"
       id="path818"
       inkscape:connector-curvature="0"
       sodipodi:nodetypes="cccccccc" />
    <path
       sodipodi:nodetypes="cccccccc"
       inkscape:connector-curvature="0"
       id="path820"
       d="m 37.041668,10.583333 h 15.875 V 5.2916664 c 2.645833,0 10.583333,5.2916666 10.583333,7.9374996 0,2.645833 -7.9375,7.9375 -10.583333,7.9375 v -5.291667 h -15.875 z"
       style="fill:#000000;stroke:#000000;stroke-width:0.13229166;stroke-linecap:round;stroke-linejoin:round;stroke-opacity:0.05;fill-opacity:1" />
    <path
       style="fill:#000000;stroke:#000000;stroke-width:0.13229166;stroke-linecap:round;stroke-linejoin:round;stroke-opacity:0.05;fill-opacity:1"
       d="m 68.79167,10.583333 h 15.875 V 5.2916664 c 2.645833,0 10.583333,5.2916666 10.583333,7.9374996 0,2.645833 -7.9375,7.9375 -10.583333,7.9375 v -5.291667 h -15.875 z"
       id="path822"
       inkscape:connector-curvature="0"
       sodipodi:nodetypes="cccccccc" />
    <path
       sodipodi:nodetypes="cccccccc"
       inkscape:connector-curvature="0"
       id="path824"
       d="m 100.54167,10.583333 h 15.87501 V 5.2916664 c 2.64583,0 10.58334,5.2916666 10.58334,7.9374996 0,2.645833 -7.93751,7.9375 -10.58334,7.9375 v -5.291667 h -15.87501 z"
       style="fill:#000000;stroke:#000000;stroke-width:0.13229166;stroke-linecap:round;stroke-linejoin:round;stroke-opacity:0.05;fill-opacity:1" />
    <path
       sodipodi:nodetypes="cccccccc"
       inkscape:connector-curvature="0"
       id="path826"
       d="M 5.2916664,31.750001 H 21.166666 v -5.291667 c 2.645833,0 10.583333,5.291667 10.583333,7.9375 0,2.645833 -7.9375,7.9375 -10.583333,7.9375 V 37.041667 H 5.2916664 Z"
       style="fill:#c00310;fill-opacity:1;stroke:#000000;stroke-width:0.13229166;stroke-linecap:round;stroke-linejoin:round;stroke-opacity:0.05" />
    <path
       style="fill:#000000;fill-opacity:1;stroke:#000000;stroke-width:0.13229166;stroke-linecap:round;stroke-linejoin:round;stroke-opacity:0.05"
       d="m 37.041668,31.750001 h 15.875 v -5.291667 c 2.645833,0 10.583333,5.291667 10.583333,7.9375 0,2.645833 -7.9375,7.9375 -10.583333,7.9375 v -5.291667 h -15.875 z"
       id="path828"
       inkscape:connector-curvature="0"
       sodipodi:nodetypes="cccccccc" />
    <path
       sodipodi:nodetypes="cccccccc"
       inkscape:connector-curvature="0"
       id="path830"
       d="m 68.79167,31.750001 h 15.875 v -5.291667 c 2.645833,0 10.583333,5.291667 10.583333,7.9375 0,2.645833 -7.9375,7.9375 -10.583333,7.9375 v -5.291667 h -15.875 z"
       style="fill:#000000;fill-opacity:1;stroke:#000000;stroke-width:0.13229166;stroke-linecap:round;stroke-linejoin:round;stroke-opacity:0.05" />
    <path
       style="fill:#000000;fill-opacity:1;stroke:#000000;stroke-width:0.13229166;stroke-linecap:round;stroke-linejoin:round;stroke-opacity:0.05"
       d="m 100.54167,31.750001 h 15.87501 v -5.291667 c 2.64583,0 10.58334,5.291667 10.58334,7.9375 0,2.645833 -7.93751,7.9375 -10.58334,7.9375 v -5.291667 h -15.87501 z"
       id="path832"
       inkscape:connector-curvature="0"
       sodipodi:nodetypes="cccccccc" />
    <path
       style="fill:#c00310;fill-opacity:1;stroke:#000000;stroke-width:0.13229166;stroke-linecap:round;stroke-linejoin:round;stroke-opacity:0.05"
       d="M 5.2916664,52.916669 H 21.166666 v -5.291667 c 2.645833,0 10.583333,5.291667 10.583333,7.9375 0,2.645833 -7.9375,7.9375 -10.583333,7.9375 V 58.208335 H 5.2916664 Z"
       id="path834"
       inkscape:connector-curvature="0"
       sodipodi:nodetypes="cccccccc" />
    <path
       sodipodi:nodetypes="cccccccc"
       inkscape:connector-curvature="0"
       id="path836"
       d="m 37.041668,52.916669 h 15.875 v -5.291667 c 2.645833,0 10.583333,5.291667 10.583333,7.9375 0,2.645833 -7.9375,7.9375 -10.583333,7.9375 v -5.291667 h -15.875 z"
       style="fill:#c00310;fill-opacity:1;stroke:#000000;stroke-width:0.13229166;stroke-linecap:round;stroke-linejoin:round;stroke-opacity:0.05" />
    <path
       style="fill:#000000;fill-opacity:1;stroke:#000000;stroke-width:0.13229166;stroke-linecap:round;stroke-linejoin:round;stroke-opacity:0.05"
       d="m 68.79167,52.916669 h 15.875 v -5.291667 c 2.645833,0 10.583333,5.291667 10.583333,7.9375 0,2.645833 -7.9375,7.9375 -10.583333,7.9375 v -5.291667 h -15.875 z"
       id="path838"
       inkscape:connector-curvature="0"
       sodipodi:nodetypes="cccccccc" />
    <path
       sodipodi:nodetypes="cccccccc"
       inkscape:connector-curvature="0"
       id="path840"
       d="m 100.54167,52.916669 h 15.87501 v -5.291667 c 2.64583,0 10.58334,5.291667 10.58334,7.9375 0,2.645833 -7.93751,7.9375 -10.58334,7.9375 v -5.291667 h -15.87501 z"
       style="fill:#000000;fill-opacity:1;stroke:#000000;stroke-width:0.13229166;stroke-linecap:round;stroke-linejoin:round;stroke-opacity:0.05" />
    <path
       sodipodi:nodetypes="cccccccc"
       inkscape:connector-curvature="0"
       id="path842"
       d="M 5.2916664,74.083337 H 21.166666 V 68.79167 c 2.645833,0 10.583333,5.291667 10.583333,7.9375 0,2.645833 -7.9375,7.9375 -10.583333,7.9375 V 79.375003 H 5.2916664 Z"
       style="fill:#c00310;fill-opacity:1;stroke:#000000;stroke-width:0.13229166;stroke-linecap:round;stroke-linejoin:round;stroke-opacity:0.05" />
    <path
       style="fill:#c00310;fill-opacity:1;stroke:#000000;stroke-width:0.13229166;stroke-linecap:round;stroke-linejoin:round;stroke-opacity:0.05"
       d="m 37.041668,74.083337 h 15.875 V 68.79167 c 2.645833,0 10.583333,5.291667 10.583333,7.9375 0,2.645833 -7.9375,7.9375 -10.583333,7.9375 v -5.291667 h -15.875 z"
       id="path844"
       inkscape:connector-curvature="0"
       sodipodi:nodetypes="cccccccc" />
    <path
       sodipodi:nodetypes="cccccccc"
       inkscape:connector-curvature="0"
       id="path846"
       d="m 68.79167,74.083337 h 15.875 V 68.79167 c 2.645833,0 10.583333,5.291667 10.583333,7.9375 0,2.645833 -7.9375,7.9375 -10.583333,7.9375 v -5.291667 h -15.875 z"
       style="fill:#c00310;fill-opacity:1;stroke:#000000;stroke-width:0.13229166;stroke-linecap:round;stroke-linejoin:round;stroke-opacity:0.05" />
    <path
       style="fill:#000000;fill-opacity:1;stroke:#000000;stroke-width:0.13229166;stroke-linecap:round;stroke-linejoin:round;stroke-opacity:0.05"
       d="m 100.54167,74.083337 h 15.87501 V 68.79167 c 2.64583,0 10.58334,5.291667 10.58334,7.9375 0,2.645833 -7.93751,7.9375 -10.58334,7.9375 v -5.291667 h -15.87501 z"
       id="path848"
       inkscape:connector-curvature="0"
       sodipodi:nodetypes="cccccccc" />
    <path
       style="fill:#c00310;fill-opacity:1;stroke:#000000;stroke-width:0.13229166;stroke-linecap:round;stroke-linejoin:round;stroke-opacity:0.05"
       d="M 5.2916664,95.250005 H 21.166666 v -5.291667 c 2.645833,0 10.583333,5.291667 10.583333,7.9375 0,2.645832 -7.9375,7.937502 -10.583333,7.937502 v -5.29167 H 5.2916664 Z"
       id="path850"
       inkscape:connector-curvature="0"
       sodipodi:nodetypes="cccccccc" />
    <path
       sodipodi:nodetypes="cccccccc"
       inkscape:connector-curvature="0"
       id="path852"
       d="m 37.041668,95.250005 h 15.875 v -5.291667 c 2.645833,0 10.583333,5.291667 10.583333,7.9375 0,2.645832 -7.9375,7.937502 -10.583333,7.937502 v -5.29167 h -15.875 z"
       style="fill:#c00310;fill-opacity:1;stroke:#000000;stroke-width:0.13229166;stroke-linecap:round;stroke-linejoin:round;stroke-opacity:0.05" />
    <path
       style="fill:#c00310;fill-opacity:1;stroke:#000000;stroke-width:0.13229166;stroke-linecap:round;stroke-linejoin:round;stroke-opacity:0.05"
       d="m 68.79167,95.250005 h 15.875 v -5.291667 c 2.645833,0 10.583333,5.291667 10.583333,7.9375 0,2.645832 -7.9375,7.937502 -10.583333,7.937502 v -5.29167 h -15.875 z"
       id="path854"
       inkscape:connector-curvature="0"
       sodipodi:nodetypes="cccccccc" />
    <path
       sodipodi:nodetypes="cccccccc"
       inkscape:connector-curvature="0"
       id="path856"
       d="m 100.54167,95.250005 h 15.87501 v -5.291667 c 2.64583,0 10.58334,5.291667 10.58334,7.9375 0,2.645832 -7.93751,7.937502 -10.58334,7.937502 v -5.29167 h -15.87501 z"
       style="fill:#c00310;fill-opacity:1;stroke:#000000;stroke-width:0.13229166;stroke-linecap:round;stroke-linejoin:round;stroke-opacity:0.05" />
  </g>
  <inkscape:templateinfo>
    <inkscape:name>500x500</inkscape:name>
    <inkscape:date>2022-01-21</inkscape:date>
  </inkscape:templateinfo>
</svg>
