<?xml version="1.0" encoding="UTF-8" standalone="no"?>
<!-- Created with Inkscape (http://www.inkscape.org/) -->

<svg
   width="500"
   height="500"
   viewBox="0 0 132.29166 132.29167"
   version="1.1"
   id="svg5"
   inkscape:version="1.1.1 (3bf5ae0, 2021-09-20)"
   sodipodi:docname="gears-1.svg"
   inkscape:export-filename="/media/chrisb/crypto1/eth/near-karts/artwork/game/gears-1.png"
   inkscape:export-xdpi="192"
   inkscape:export-ydpi="192"
   xmlns:inkscape="http://www.inkscape.org/namespaces/inkscape"
   xmlns:sodipodi="http://sodipodi.sourceforge.net/DTD/sodipodi-0.dtd"
   xmlns="http://www.w3.org/2000/svg"
   xmlns:svg="http://www.w3.org/2000/svg">
  <sodipodi:namedview
     id="namedview7"
     pagecolor="#ffffff"
     bordercolor="#666666"
     borderopacity="1.0"
     inkscape:pageshadow="2"
     inkscape:pageopacity="0"
     inkscape:pagecheckerboard="0"
     inkscape:document-units="px"
     showgrid="true"
     units="px"
     inkscape:zoom="0.37880467"
     inkscape:cx="250.78889"
     inkscape:cy="425.02116"
     inkscape:window-width="1366"
     inkscape:window-height="713"
     inkscape:window-x="0"
     inkscape:window-y="0"
     inkscape:window-maximized="1"
     inkscape:current-layer="layer1">
    <inkscape:grid
       type="xygrid"
       id="grid824"
       spacingx="2.6458333"
       spacingy="2.6458333"
       empspacing="4" />
  </sodipodi:namedview>
  <defs
     id="defs2" />
  <g
     inkscape:groupmode="layer"
     id="layer2"
     inkscape:label="Layer 2">
    <path
       style="fill:#e6e6e6;fill-opacity:1;stroke:#000000;stroke-width:0.132292;stroke-linecap:round;stroke-linejoin:round;stroke-miterlimit:4;stroke-dasharray:none;stroke-opacity:0.05;stop-color:#000000"
       d="M 10.583333,-10.583333 V 127"
       id="path3577" />
    <path
       style="fill:#e6e6e6;fill-opacity:1;stroke:#000000;stroke-width:0.132292;stroke-linecap:round;stroke-linejoin:round;stroke-miterlimit:4;stroke-dasharray:none;stroke-opacity:0.05;stop-color:#000000"
       d="M -10.583333,21.166666 H 137.58333"
       id="path3579" />
    <path
       style="fill:#e6e6e6;fill-opacity:1;stroke:#000000;stroke-width:0.132292;stroke-linecap:round;stroke-linejoin:round;stroke-miterlimit:4;stroke-dasharray:none;stroke-opacity:0.05;stop-color:#000000"
       d="M -10.583333,31.75 H 148.16666"
       id="path3581" />
    <path
       style="fill:#e6e6e6;fill-opacity:1;stroke:#000000;stroke-width:0.132292;stroke-linecap:round;stroke-linejoin:round;stroke-miterlimit:4;stroke-dasharray:none;stroke-opacity:0.05;stop-color:#000000"
       d="M 21.166666,-10.583333 V 144.70699"
       id="path3583"
       inkscape:export-filename="/media/chrisb/crypto1/eth/near-karts/artwork/game/gears-1.png"
       inkscape:export-xdpi="192"
       inkscape:export-ydpi="192" />
  </g>
  <g
     inkscape:label="Layer 1"
     inkscape:groupmode="layer"
     id="layer1"
     style="opacity:0.5">
    <g
       id="g3837"
       transform="matrix(0.54492004,0,0,0.54492004,61.353398,3.6174428)">
      <g
         id="g1981"
         transform="matrix(0.16143567,-0.27378938,0.27378938,0.16143567,105.54689,30.964266)">
        <g
           inkscape:label="Rendered Gears"
           transform="matrix(0.62415992,0,0,0.62415992,23.878196,48.958069)"
           id="g1955"
           style="stroke:#000000;stroke-width:0.847806;stroke-miterlimit:4;stroke-dasharray:none;stroke-opacity:0.1">
          <path
             style="fill:none;stroke:#000000;stroke-width:0.847806;stroke-miterlimit:4;stroke-dasharray:none;stroke-opacity:0.1"
             d="m 8.33259,-1.22361 1.06349,-0.15617 0.62382,0.06064 1.7592,0.79639 v 1.0455 L 10.0199,1.31914 9.39608,1.37978 8.33259,1.22361 7.82804,3.10662 8.82714,3.50312 9.33704,3.86753 10.4624,5.43686 9.93966,6.34228 8.0179,6.15235 7.44736,5.89297 6.60443,5.22597 5.22597,6.60443 5.89297,7.44736 6.15235,8.0179 6.34228,9.93966 5.43686,10.4624 3.86753,9.33704 3.50312,8.82714 3.10662,7.82804 1.22361,8.33259 1.37978,9.39608 1.31914,10.0199 0.52275,11.7791 h -1.0455 l -0.79639,-1.7592 -0.06064,-0.62382 0.15617,-1.06349 -1.88301,-0.50455 -0.3965,0.9991 -0.36441,0.5099 -1.56933,1.12536 -0.90542,-0.52274 0.18993,-1.92176 0.25938,-0.57054 0.667,-0.84293 -1.37846,-1.37846 -0.84293,0.667 -0.57054,0.25938 -1.92176,0.18993 -0.52274,-0.90542 1.12536,-1.56933 0.5099,-0.36441 0.9991,-0.3965 -0.50455,-1.88301 -1.06349,0.15617 -0.62382,-0.06064 -1.7592,-0.79639 v -1.0455 l 1.7592,-0.79639 0.62382,-0.06064 1.06349,0.15617 0.50455,-1.88301 -0.9991,-0.3965 -0.5099,-0.36441 -1.12536,-1.56933 0.52274,-0.90542 1.92176,0.18993 0.57054,0.25938 0.84293,0.667 1.37846,-1.37846 -0.667,-0.84293 -0.25938,-0.57054 -0.18993,-1.92176 0.90542,-0.52274 1.56933,1.12536 0.36441,0.5099 0.3965,0.9991 1.88301,-0.50455 -0.15617,-1.06349 0.06064,-0.62382 0.79639,-1.7592 h 1.0455 l 0.79639,1.7592 0.06064,0.62382 -0.15617,1.06349 1.88301,0.50455 0.3965,-0.9991 0.36441,-0.5099 1.56933,-1.12536 0.90542,0.52274 -0.18993,1.92176 -0.25938,0.57054 -0.667,0.84293 1.37846,1.37846 0.84293,-0.667 0.57054,-0.25938 1.92176,-0.18993 0.52274,0.90542 -1.12536,1.56933 -0.5099,0.36441 -0.9991,0.3965 z"
             id="path1951" />
          <circle
             style="fill:none;stroke:#000000;stroke-width:0.847806;stroke-miterlimit:4;stroke-dasharray:none;stroke-opacity:0.1"
             id="circle1953"
             cx="0"
             cy="0"
             r="2.6458333" />
        </g>
        <g
           inkscape:label="Rendered Gears"
           transform="rotate(-48.781444,94.11758,-16.330687)"
           id="g1961"
           style="fill:#000000;fill-opacity:0.02;stroke:none;stroke-width:0.529167;stroke-miterlimit:4;stroke-dasharray:none">
          <path
             style="fill:#000000;fill-opacity:0.02;stroke:none;stroke-width:0.529167;stroke-miterlimit:4;stroke-dasharray:none"
             d="M 3.24064,-0.9203 4.5678,-1.2972 4.88099,-1.30786 6.72592,-0.39581 V 0.39581 L 4.88099,1.30786 4.5678,1.2972 3.24064,0.9203 2.41732,2.34632 3.40731,3.30723 3.57313,3.57313 3.70574,5.62692 3.02018,6.02272 1.30786,4.88099 1.16049,4.60443 0.82331,3.26662 H -0.82331 L -1.16049,4.60443 -1.30786,4.88099 -3.02018,6.02272 -3.70574,5.62692 -3.57313,3.57313 -3.40731,3.30723 -2.41732,2.34632 -3.24064,0.9203 -4.5678,1.2972 -4.88099,1.30786 -6.72592,0.39581 v -0.79162 l 1.84493,-0.91205 0.31319,0.01066 1.32716,0.3769 0.82332,-1.42602 -0.98999,-0.96091 -0.16582,-0.2659 -0.13261,-2.05379 0.68556,-0.3958 1.71232,1.14173 0.14737,0.27656 0.33718,1.33781 h 1.64662 l 0.33718,-1.33781 0.14737,-0.27656 1.71232,-1.14173 0.68556,0.3958 -0.13261,2.05379 -0.16582,0.2659 -0.98999,0.96091 z"
             id="path1957" />
          <circle
             style="fill:#000000;fill-opacity:0.02;stroke:none;stroke-width:0.529167;stroke-miterlimit:4;stroke-dasharray:none"
             id="circle1959"
             cx="0"
             cy="0"
             r="2.6458333" />
        </g>
        <g
           inkscape:label="Rendered Gears"
           transform="matrix(0.7007446,0,0,0.7007446,44.402236,45.335933)"
           id="g1967"
           style="stroke:#000000;stroke-width:0.755149;stroke-miterlimit:4;stroke-dasharray:none;stroke-opacity:0.05">
          <path
             style="fill:none;stroke:#000000;stroke-width:0.755149;stroke-miterlimit:4;stroke-dasharray:none;stroke-opacity:0.05"
             d="M 3.24064,-0.9203 4.5678,-1.2972 4.88099,-1.30786 6.72592,-0.39581 V 0.39581 L 4.88099,1.30786 4.5678,1.2972 3.24064,0.9203 2.41732,2.34632 3.40731,3.30723 3.57313,3.57313 3.70574,5.62692 3.02018,6.02272 1.30786,4.88099 1.16049,4.60443 0.82331,3.26662 H -0.82331 L -1.16049,4.60443 -1.30786,4.88099 -3.02018,6.02272 -3.70574,5.62692 -3.57313,3.57313 -3.40731,3.30723 -2.41732,2.34632 -3.24064,0.9203 -4.5678,1.2972 -4.88099,1.30786 -6.72592,0.39581 v -0.79162 l 1.84493,-0.91205 0.31319,0.01066 1.32716,0.3769 0.82332,-1.42602 -0.98999,-0.96091 -0.16582,-0.2659 -0.13261,-2.05379 0.68556,-0.3958 1.71232,1.14173 0.14737,0.27656 0.33718,1.33781 h 1.64662 l 0.33718,-1.33781 0.14737,-0.27656 1.71232,-1.14173 0.68556,0.3958 -0.13261,2.05379 -0.16582,0.2659 -0.98999,0.96091 z"
             id="path1963" />
          <circle
             style="fill:none;stroke:#000000;stroke-width:0.755149;stroke-miterlimit:4;stroke-dasharray:none;stroke-opacity:0.05"
             id="circle1965"
             cx="0"
             cy="0"
             r="2.6458333" />
        </g>
        <g
           inkscape:label="Rendered Gears"
           transform="matrix(0.62415992,0,0,0.62415992,34.486631,30.986271)"
           id="g1973"
           style="stroke:#000000;stroke-width:0.847806;stroke-miterlimit:4;stroke-dasharray:none;stroke-opacity:0.1">
          <path
             style="fill:none;stroke:#000000;stroke-width:0.847806;stroke-miterlimit:4;stroke-dasharray:none;stroke-opacity:0.1"
             d="m 8.33259,-1.22361 1.06349,-0.15617 0.62382,0.06064 1.7592,0.79639 v 1.0455 L 10.0199,1.31914 9.39608,1.37978 8.33259,1.22361 7.82804,3.10662 8.82714,3.50312 9.33704,3.86753 10.4624,5.43686 9.93966,6.34228 8.0179,6.15235 7.44736,5.89297 6.60443,5.22597 5.22597,6.60443 5.89297,7.44736 6.15235,8.0179 6.34228,9.93966 5.43686,10.4624 3.86753,9.33704 3.50312,8.82714 3.10662,7.82804 1.22361,8.33259 1.37978,9.39608 1.31914,10.0199 0.52275,11.7791 h -1.0455 l -0.79639,-1.7592 -0.06064,-0.62382 0.15617,-1.06349 -1.88301,-0.50455 -0.3965,0.9991 -0.36441,0.5099 -1.56933,1.12536 -0.90542,-0.52274 0.18993,-1.92176 0.25938,-0.57054 0.667,-0.84293 -1.37846,-1.37846 -0.84293,0.667 -0.57054,0.25938 -1.92176,0.18993 -0.52274,-0.90542 1.12536,-1.56933 0.5099,-0.36441 0.9991,-0.3965 -0.50455,-1.88301 -1.06349,0.15617 -0.62382,-0.06064 -1.7592,-0.79639 v -1.0455 l 1.7592,-0.79639 0.62382,-0.06064 1.06349,0.15617 0.50455,-1.88301 -0.9991,-0.3965 -0.5099,-0.36441 -1.12536,-1.56933 0.52274,-0.90542 1.92176,0.18993 0.57054,0.25938 0.84293,0.667 1.37846,-1.37846 -0.667,-0.84293 -0.25938,-0.57054 -0.18993,-1.92176 0.90542,-0.52274 1.56933,1.12536 0.36441,0.5099 0.3965,0.9991 1.88301,-0.50455 -0.15617,-1.06349 0.06064,-0.62382 0.79639,-1.7592 h 1.0455 l 0.79639,1.7592 0.06064,0.62382 -0.15617,1.06349 1.88301,0.50455 0.3965,-0.9991 0.36441,-0.5099 1.56933,-1.12536 0.90542,0.52274 -0.18993,1.92176 -0.25938,0.57054 -0.667,0.84293 1.37846,1.37846 0.84293,-0.667 0.57054,-0.25938 1.92176,-0.18993 0.52274,0.90542 -1.12536,1.56933 -0.5099,0.36441 -0.9991,0.3965 z"
             id="path1969" />
          <circle
             style="fill:none;stroke:#000000;stroke-width:0.847806;stroke-miterlimit:4;stroke-dasharray:none;stroke-opacity:0.1"
             id="circle1971"
             cx="0"
             cy="0"
             r="2.6458333" />
        </g>
        <g
           inkscape:label="Rendered Gears"
           transform="matrix(0.38061344,0,0,0.38061344,24.044376,70.90136)"
           id="g1979"
           style="fill:#000000;fill-opacity:0.02;stroke:none;stroke-width:1.3903;stroke-miterlimit:4;stroke-dasharray:none">
          <path
             style="fill:#000000;fill-opacity:0.02;stroke:none;stroke-width:1.3903;stroke-miterlimit:4;stroke-dasharray:none"
             d="m 8.33259,-1.22361 1.06349,-0.15617 0.62382,0.06064 1.7592,0.79639 v 1.0455 L 10.0199,1.31914 9.39608,1.37978 8.33259,1.22361 7.82804,3.10662 8.82714,3.50312 9.33704,3.86753 10.4624,5.43686 9.93966,6.34228 8.0179,6.15235 7.44736,5.89297 6.60443,5.22597 5.22597,6.60443 5.89297,7.44736 6.15235,8.0179 6.34228,9.93966 5.43686,10.4624 3.86753,9.33704 3.50312,8.82714 3.10662,7.82804 1.22361,8.33259 1.37978,9.39608 1.31914,10.0199 0.52275,11.7791 h -1.0455 l -0.79639,-1.7592 -0.06064,-0.62382 0.15617,-1.06349 -1.88301,-0.50455 -0.3965,0.9991 -0.36441,0.5099 -1.56933,1.12536 -0.90542,-0.52274 0.18993,-1.92176 0.25938,-0.57054 0.667,-0.84293 -1.37846,-1.37846 -0.84293,0.667 -0.57054,0.25938 -1.92176,0.18993 -0.52274,-0.90542 1.12536,-1.56933 0.5099,-0.36441 0.9991,-0.3965 -0.50455,-1.88301 -1.06349,0.15617 -0.62382,-0.06064 -1.7592,-0.79639 v -1.0455 l 1.7592,-0.79639 0.62382,-0.06064 1.06349,0.15617 0.50455,-1.88301 -0.9991,-0.3965 -0.5099,-0.36441 -1.12536,-1.56933 0.52274,-0.90542 1.92176,0.18993 0.57054,0.25938 0.84293,0.667 1.37846,-1.37846 -0.667,-0.84293 -0.25938,-0.57054 -0.18993,-1.92176 0.90542,-0.52274 1.56933,1.12536 0.36441,0.5099 0.3965,0.9991 1.88301,-0.50455 -0.15617,-1.06349 0.06064,-0.62382 0.79639,-1.7592 h 1.0455 l 0.79639,1.7592 0.06064,0.62382 -0.15617,1.06349 1.88301,0.50455 0.3965,-0.9991 0.36441,-0.5099 1.56933,-1.12536 0.90542,0.52274 -0.18993,1.92176 -0.25938,0.57054 -0.667,0.84293 1.37846,1.37846 0.84293,-0.667 0.57054,-0.25938 1.92176,-0.18993 0.52274,0.90542 -1.12536,1.56933 -0.5099,0.36441 -0.9991,0.3965 z"
             id="path1975" />
          <circle
             style="fill:#000000;fill-opacity:0.02;stroke:none;stroke-width:1.3903;stroke-miterlimit:4;stroke-dasharray:none"
             id="circle1977"
             cx="0"
             cy="0"
             r="2.6458333" />
        </g>
      </g>
      <g
         id="g2013"
         transform="matrix(0.16143567,-0.27378938,0.27378938,0.16143567,94.830704,11.777513)">
        <g
           inkscape:label="Rendered Gears"
           transform="matrix(0.62415992,0,0,0.62415992,23.878196,48.958069)"
           id="g1987"
           style="stroke:#000000;stroke-width:0.847806;stroke-miterlimit:4;stroke-dasharray:none;stroke-opacity:0.1">
          <path
             style="fill:none;stroke:#000000;stroke-width:0.847806;stroke-miterlimit:4;stroke-dasharray:none;stroke-opacity:0.1"
             d="m 8.33259,-1.22361 1.06349,-0.15617 0.62382,0.06064 1.7592,0.79639 v 1.0455 L 10.0199,1.31914 9.39608,1.37978 8.33259,1.22361 7.82804,3.10662 8.82714,3.50312 9.33704,3.86753 10.4624,5.43686 9.93966,6.34228 8.0179,6.15235 7.44736,5.89297 6.60443,5.22597 5.22597,6.60443 5.89297,7.44736 6.15235,8.0179 6.34228,9.93966 5.43686,10.4624 3.86753,9.33704 3.50312,8.82714 3.10662,7.82804 1.22361,8.33259 1.37978,9.39608 1.31914,10.0199 0.52275,11.7791 h -1.0455 l -0.79639,-1.7592 -0.06064,-0.62382 0.15617,-1.06349 -1.88301,-0.50455 -0.3965,0.9991 -0.36441,0.5099 -1.56933,1.12536 -0.90542,-0.52274 0.18993,-1.92176 0.25938,-0.57054 0.667,-0.84293 -1.37846,-1.37846 -0.84293,0.667 -0.57054,0.25938 -1.92176,0.18993 -0.52274,-0.90542 1.12536,-1.56933 0.5099,-0.36441 0.9991,-0.3965 -0.50455,-1.88301 -1.06349,0.15617 -0.62382,-0.06064 -1.7592,-0.79639 v -1.0455 l 1.7592,-0.79639 0.62382,-0.06064 1.06349,0.15617 0.50455,-1.88301 -0.9991,-0.3965 -0.5099,-0.36441 -1.12536,-1.56933 0.52274,-0.90542 1.92176,0.18993 0.57054,0.25938 0.84293,0.667 1.37846,-1.37846 -0.667,-0.84293 -0.25938,-0.57054 -0.18993,-1.92176 0.90542,-0.52274 1.56933,1.12536 0.36441,0.5099 0.3965,0.9991 1.88301,-0.50455 -0.15617,-1.06349 0.06064,-0.62382 0.79639,-1.7592 h 1.0455 l 0.79639,1.7592 0.06064,0.62382 -0.15617,1.06349 1.88301,0.50455 0.3965,-0.9991 0.36441,-0.5099 1.56933,-1.12536 0.90542,0.52274 -0.18993,1.92176 -0.25938,0.57054 -0.667,0.84293 1.37846,1.37846 0.84293,-0.667 0.57054,-0.25938 1.92176,-0.18993 0.52274,0.90542 -1.12536,1.56933 -0.5099,0.36441 -0.9991,0.3965 z"
             id="path1983" />
          <circle
             style="fill:none;stroke:#000000;stroke-width:0.847806;stroke-miterlimit:4;stroke-dasharray:none;stroke-opacity:0.1"
             id="circle1985"
             cx="0"
             cy="0"
             r="2.6458333" />
        </g>
        <g
           inkscape:label="Rendered Gears"
           transform="rotate(-48.781444,94.11758,-16.330687)"
           id="g1993"
           style="fill:#000000;fill-opacity:0.02;stroke:none;stroke-width:0.529167;stroke-miterlimit:4;stroke-dasharray:none">
          <path
             style="fill:#000000;fill-opacity:0.02;stroke:none;stroke-width:0.529167;stroke-miterlimit:4;stroke-dasharray:none"
             d="M 3.24064,-0.9203 4.5678,-1.2972 4.88099,-1.30786 6.72592,-0.39581 V 0.39581 L 4.88099,1.30786 4.5678,1.2972 3.24064,0.9203 2.41732,2.34632 3.40731,3.30723 3.57313,3.57313 3.70574,5.62692 3.02018,6.02272 1.30786,4.88099 1.16049,4.60443 0.82331,3.26662 H -0.82331 L -1.16049,4.60443 -1.30786,4.88099 -3.02018,6.02272 -3.70574,5.62692 -3.57313,3.57313 -3.40731,3.30723 -2.41732,2.34632 -3.24064,0.9203 -4.5678,1.2972 -4.88099,1.30786 -6.72592,0.39581 v -0.79162 l 1.84493,-0.91205 0.31319,0.01066 1.32716,0.3769 0.82332,-1.42602 -0.98999,-0.96091 -0.16582,-0.2659 -0.13261,-2.05379 0.68556,-0.3958 1.71232,1.14173 0.14737,0.27656 0.33718,1.33781 h 1.64662 l 0.33718,-1.33781 0.14737,-0.27656 1.71232,-1.14173 0.68556,0.3958 -0.13261,2.05379 -0.16582,0.2659 -0.98999,0.96091 z"
             id="path1989" />
          <circle
             style="fill:#000000;fill-opacity:0.02;stroke:none;stroke-width:0.529167;stroke-miterlimit:4;stroke-dasharray:none"
             id="circle1991"
             cx="0"
             cy="0"
             r="2.6458333" />
        </g>
        <g
           inkscape:label="Rendered Gears"
           transform="matrix(0.7007446,0,0,0.7007446,44.402236,45.335933)"
           id="g1999"
           style="stroke:#000000;stroke-width:0.755149;stroke-miterlimit:4;stroke-dasharray:none;stroke-opacity:0.05">
          <path
             style="fill:none;stroke:#000000;stroke-width:0.755149;stroke-miterlimit:4;stroke-dasharray:none;stroke-opacity:0.05"
             d="M 3.24064,-0.9203 4.5678,-1.2972 4.88099,-1.30786 6.72592,-0.39581 V 0.39581 L 4.88099,1.30786 4.5678,1.2972 3.24064,0.9203 2.41732,2.34632 3.40731,3.30723 3.57313,3.57313 3.70574,5.62692 3.02018,6.02272 1.30786,4.88099 1.16049,4.60443 0.82331,3.26662 H -0.82331 L -1.16049,4.60443 -1.30786,4.88099 -3.02018,6.02272 -3.70574,5.62692 -3.57313,3.57313 -3.40731,3.30723 -2.41732,2.34632 -3.24064,0.9203 -4.5678,1.2972 -4.88099,1.30786 -6.72592,0.39581 v -0.79162 l 1.84493,-0.91205 0.31319,0.01066 1.32716,0.3769 0.82332,-1.42602 -0.98999,-0.96091 -0.16582,-0.2659 -0.13261,-2.05379 0.68556,-0.3958 1.71232,1.14173 0.14737,0.27656 0.33718,1.33781 h 1.64662 l 0.33718,-1.33781 0.14737,-0.27656 1.71232,-1.14173 0.68556,0.3958 -0.13261,2.05379 -0.16582,0.2659 -0.98999,0.96091 z"
             id="path1995" />
          <circle
             style="fill:none;stroke:#000000;stroke-width:0.755149;stroke-miterlimit:4;stroke-dasharray:none;stroke-opacity:0.05"
             id="circle1997"
             cx="0"
             cy="0"
             r="2.6458333" />
        </g>
        <g
           inkscape:label="Rendered Gears"
           transform="matrix(0.62415992,0,0,0.62415992,34.486631,30.986271)"
           id="g2005"
           style="stroke:#000000;stroke-width:0.847806;stroke-miterlimit:4;stroke-dasharray:none;stroke-opacity:0.1">
          <path
             style="fill:none;stroke:#000000;stroke-width:0.847806;stroke-miterlimit:4;stroke-dasharray:none;stroke-opacity:0.1"
             d="m 8.33259,-1.22361 1.06349,-0.15617 0.62382,0.06064 1.7592,0.79639 v 1.0455 L 10.0199,1.31914 9.39608,1.37978 8.33259,1.22361 7.82804,3.10662 8.82714,3.50312 9.33704,3.86753 10.4624,5.43686 9.93966,6.34228 8.0179,6.15235 7.44736,5.89297 6.60443,5.22597 5.22597,6.60443 5.89297,7.44736 6.15235,8.0179 6.34228,9.93966 5.43686,10.4624 3.86753,9.33704 3.50312,8.82714 3.10662,7.82804 1.22361,8.33259 1.37978,9.39608 1.31914,10.0199 0.52275,11.7791 h -1.0455 l -0.79639,-1.7592 -0.06064,-0.62382 0.15617,-1.06349 -1.88301,-0.50455 -0.3965,0.9991 -0.36441,0.5099 -1.56933,1.12536 -0.90542,-0.52274 0.18993,-1.92176 0.25938,-0.57054 0.667,-0.84293 -1.37846,-1.37846 -0.84293,0.667 -0.57054,0.25938 -1.92176,0.18993 -0.52274,-0.90542 1.12536,-1.56933 0.5099,-0.36441 0.9991,-0.3965 -0.50455,-1.88301 -1.06349,0.15617 -0.62382,-0.06064 -1.7592,-0.79639 v -1.0455 l 1.7592,-0.79639 0.62382,-0.06064 1.06349,0.15617 0.50455,-1.88301 -0.9991,-0.3965 -0.5099,-0.36441 -1.12536,-1.56933 0.52274,-0.90542 1.92176,0.18993 0.57054,0.25938 0.84293,0.667 1.37846,-1.37846 -0.667,-0.84293 -0.25938,-0.57054 -0.18993,-1.92176 0.90542,-0.52274 1.56933,1.12536 0.36441,0.5099 0.3965,0.9991 1.88301,-0.50455 -0.15617,-1.06349 0.06064,-0.62382 0.79639,-1.7592 h 1.0455 l 0.79639,1.7592 0.06064,0.62382 -0.15617,1.06349 1.88301,0.50455 0.3965,-0.9991 0.36441,-0.5099 1.56933,-1.12536 0.90542,0.52274 -0.18993,1.92176 -0.25938,0.57054 -0.667,0.84293 1.37846,1.37846 0.84293,-0.667 0.57054,-0.25938 1.92176,-0.18993 0.52274,0.90542 -1.12536,1.56933 -0.5099,0.36441 -0.9991,0.3965 z"
             id="path2001" />
          <circle
             style="fill:none;stroke:#000000;stroke-width:0.847806;stroke-miterlimit:4;stroke-dasharray:none;stroke-opacity:0.1"
             id="circle2003"
             cx="0"
             cy="0"
             r="2.6458333" />
        </g>
        <g
           inkscape:label="Rendered Gears"
           transform="matrix(0.38061344,0,0,0.38061344,24.044376,70.90136)"
           id="g2011"
           style="fill:#000000;fill-opacity:0.02;stroke:none;stroke-width:1.3903;stroke-miterlimit:4;stroke-dasharray:none">
          <path
             style="fill:#000000;fill-opacity:0.02;stroke:none;stroke-width:1.3903;stroke-miterlimit:4;stroke-dasharray:none"
             d="m 8.33259,-1.22361 1.06349,-0.15617 0.62382,0.06064 1.7592,0.79639 v 1.0455 L 10.0199,1.31914 9.39608,1.37978 8.33259,1.22361 7.82804,3.10662 8.82714,3.50312 9.33704,3.86753 10.4624,5.43686 9.93966,6.34228 8.0179,6.15235 7.44736,5.89297 6.60443,5.22597 5.22597,6.60443 5.89297,7.44736 6.15235,8.0179 6.34228,9.93966 5.43686,10.4624 3.86753,9.33704 3.50312,8.82714 3.10662,7.82804 1.22361,8.33259 1.37978,9.39608 1.31914,10.0199 0.52275,11.7791 h -1.0455 l -0.79639,-1.7592 -0.06064,-0.62382 0.15617,-1.06349 -1.88301,-0.50455 -0.3965,0.9991 -0.36441,0.5099 -1.56933,1.12536 -0.90542,-0.52274 0.18993,-1.92176 0.25938,-0.57054 0.667,-0.84293 -1.37846,-1.37846 -0.84293,0.667 -0.57054,0.25938 -1.92176,0.18993 -0.52274,-0.90542 1.12536,-1.56933 0.5099,-0.36441 0.9991,-0.3965 -0.50455,-1.88301 -1.06349,0.15617 -0.62382,-0.06064 -1.7592,-0.79639 v -1.0455 l 1.7592,-0.79639 0.62382,-0.06064 1.06349,0.15617 0.50455,-1.88301 -0.9991,-0.3965 -0.5099,-0.36441 -1.12536,-1.56933 0.52274,-0.90542 1.92176,0.18993 0.57054,0.25938 0.84293,0.667 1.37846,-1.37846 -0.667,-0.84293 -0.25938,-0.57054 -0.18993,-1.92176 0.90542,-0.52274 1.56933,1.12536 0.36441,0.5099 0.3965,0.9991 1.88301,-0.50455 -0.15617,-1.06349 0.06064,-0.62382 0.79639,-1.7592 h 1.0455 l 0.79639,1.7592 0.06064,0.62382 -0.15617,1.06349 1.88301,0.50455 0.3965,-0.9991 0.36441,-0.5099 1.56933,-1.12536 0.90542,0.52274 -0.18993,1.92176 -0.25938,0.57054 -0.667,0.84293 1.37846,1.37846 0.84293,-0.667 0.57054,-0.25938 1.92176,-0.18993 0.52274,0.90542 -1.12536,1.56933 -0.5099,0.36441 -0.9991,0.3965 z"
             id="path2007" />
          <circle
             style="fill:#000000;fill-opacity:0.02;stroke:none;stroke-width:1.3903;stroke-miterlimit:4;stroke-dasharray:none"
             id="circle2009"
             cx="0"
             cy="0"
             r="2.6458333" />
        </g>
      </g>
      <g
         id="g2045"
         transform="matrix(0.283124,-0.48016862,0.48016862,0.283124,78.83348,50.760893)">
        <g
           inkscape:label="Rendered Gears"
           transform="matrix(0.62415992,0,0,0.62415992,23.878196,48.958069)"
           id="g2019"
           style="stroke:#000000;stroke-width:0.847806;stroke-miterlimit:4;stroke-dasharray:none;stroke-opacity:0.1">
          <path
             style="fill:none;stroke:#000000;stroke-width:0.847806;stroke-miterlimit:4;stroke-dasharray:none;stroke-opacity:0.1"
             d="m 8.33259,-1.22361 1.06349,-0.15617 0.62382,0.06064 1.7592,0.79639 v 1.0455 L 10.0199,1.31914 9.39608,1.37978 8.33259,1.22361 7.82804,3.10662 8.82714,3.50312 9.33704,3.86753 10.4624,5.43686 9.93966,6.34228 8.0179,6.15235 7.44736,5.89297 6.60443,5.22597 5.22597,6.60443 5.89297,7.44736 6.15235,8.0179 6.34228,9.93966 5.43686,10.4624 3.86753,9.33704 3.50312,8.82714 3.10662,7.82804 1.22361,8.33259 1.37978,9.39608 1.31914,10.0199 0.52275,11.7791 h -1.0455 l -0.79639,-1.7592 -0.06064,-0.62382 0.15617,-1.06349 -1.88301,-0.50455 -0.3965,0.9991 -0.36441,0.5099 -1.56933,1.12536 -0.90542,-0.52274 0.18993,-1.92176 0.25938,-0.57054 0.667,-0.84293 -1.37846,-1.37846 -0.84293,0.667 -0.57054,0.25938 -1.92176,0.18993 -0.52274,-0.90542 1.12536,-1.56933 0.5099,-0.36441 0.9991,-0.3965 -0.50455,-1.88301 -1.06349,0.15617 -0.62382,-0.06064 -1.7592,-0.79639 v -1.0455 l 1.7592,-0.79639 0.62382,-0.06064 1.06349,0.15617 0.50455,-1.88301 -0.9991,-0.3965 -0.5099,-0.36441 -1.12536,-1.56933 0.52274,-0.90542 1.92176,0.18993 0.57054,0.25938 0.84293,0.667 1.37846,-1.37846 -0.667,-0.84293 -0.25938,-0.57054 -0.18993,-1.92176 0.90542,-0.52274 1.56933,1.12536 0.36441,0.5099 0.3965,0.9991 1.88301,-0.50455 -0.15617,-1.06349 0.06064,-0.62382 0.79639,-1.7592 h 1.0455 l 0.79639,1.7592 0.06064,0.62382 -0.15617,1.06349 1.88301,0.50455 0.3965,-0.9991 0.36441,-0.5099 1.56933,-1.12536 0.90542,0.52274 -0.18993,1.92176 -0.25938,0.57054 -0.667,0.84293 1.37846,1.37846 0.84293,-0.667 0.57054,-0.25938 1.92176,-0.18993 0.52274,0.90542 -1.12536,1.56933 -0.5099,0.36441 -0.9991,0.3965 z"
             id="path2015" />
          <circle
             style="fill:none;stroke:#000000;stroke-width:0.847806;stroke-miterlimit:4;stroke-dasharray:none;stroke-opacity:0.1"
             id="circle2017"
             cx="0"
             cy="0"
             r="2.6458333" />
        </g>
        <g
           inkscape:label="Rendered Gears"
           transform="rotate(-48.781444,94.11758,-16.330687)"
           id="g2025"
           style="fill:#000000;fill-opacity:0.02;stroke:none;stroke-width:0.529167;stroke-miterlimit:4;stroke-dasharray:none">
          <path
             style="fill:#000000;fill-opacity:0.02;stroke:none;stroke-width:0.529167;stroke-miterlimit:4;stroke-dasharray:none"
             d="M 3.24064,-0.9203 4.5678,-1.2972 4.88099,-1.30786 6.72592,-0.39581 V 0.39581 L 4.88099,1.30786 4.5678,1.2972 3.24064,0.9203 2.41732,2.34632 3.40731,3.30723 3.57313,3.57313 3.70574,5.62692 3.02018,6.02272 1.30786,4.88099 1.16049,4.60443 0.82331,3.26662 H -0.82331 L -1.16049,4.60443 -1.30786,4.88099 -3.02018,6.02272 -3.70574,5.62692 -3.57313,3.57313 -3.40731,3.30723 -2.41732,2.34632 -3.24064,0.9203 -4.5678,1.2972 -4.88099,1.30786 -6.72592,0.39581 v -0.79162 l 1.84493,-0.91205 0.31319,0.01066 1.32716,0.3769 0.82332,-1.42602 -0.98999,-0.96091 -0.16582,-0.2659 -0.13261,-2.05379 0.68556,-0.3958 1.71232,1.14173 0.14737,0.27656 0.33718,1.33781 h 1.64662 l 0.33718,-1.33781 0.14737,-0.27656 1.71232,-1.14173 0.68556,0.3958 -0.13261,2.05379 -0.16582,0.2659 -0.98999,0.96091 z"
             id="path2021" />
          <circle
             style="fill:#000000;fill-opacity:0.02;stroke:none;stroke-width:0.529167;stroke-miterlimit:4;stroke-dasharray:none"
             id="circle2023"
             cx="0"
             cy="0"
             r="2.6458333" />
        </g>
        <g
           inkscape:label="Rendered Gears"
           transform="matrix(0.7007446,0,0,0.7007446,44.402236,45.335933)"
           id="g2031"
           style="stroke:#000000;stroke-width:0.755149;stroke-miterlimit:4;stroke-dasharray:none;stroke-opacity:0.05">
          <path
             style="fill:none;stroke:#000000;stroke-width:0.755149;stroke-miterlimit:4;stroke-dasharray:none;stroke-opacity:0.05"
             d="M 3.24064,-0.9203 4.5678,-1.2972 4.88099,-1.30786 6.72592,-0.39581 V 0.39581 L 4.88099,1.30786 4.5678,1.2972 3.24064,0.9203 2.41732,2.34632 3.40731,3.30723 3.57313,3.57313 3.70574,5.62692 3.02018,6.02272 1.30786,4.88099 1.16049,4.60443 0.82331,3.26662 H -0.82331 L -1.16049,4.60443 -1.30786,4.88099 -3.02018,6.02272 -3.70574,5.62692 -3.57313,3.57313 -3.40731,3.30723 -2.41732,2.34632 -3.24064,0.9203 -4.5678,1.2972 -4.88099,1.30786 -6.72592,0.39581 v -0.79162 l 1.84493,-0.91205 0.31319,0.01066 1.32716,0.3769 0.82332,-1.42602 -0.98999,-0.96091 -0.16582,-0.2659 -0.13261,-2.05379 0.68556,-0.3958 1.71232,1.14173 0.14737,0.27656 0.33718,1.33781 h 1.64662 l 0.33718,-1.33781 0.14737,-0.27656 1.71232,-1.14173 0.68556,0.3958 -0.13261,2.05379 -0.16582,0.2659 -0.98999,0.96091 z"
             id="path2027" />
          <circle
             style="fill:none;stroke:#000000;stroke-width:0.755149;stroke-miterlimit:4;stroke-dasharray:none;stroke-opacity:0.05"
             id="circle2029"
             cx="0"
             cy="0"
             r="2.6458333" />
        </g>
        <g
           inkscape:label="Rendered Gears"
           transform="matrix(0.62415992,0,0,0.62415992,34.486631,30.986271)"
           id="g2037"
           style="stroke:#000000;stroke-width:0.847806;stroke-miterlimit:4;stroke-dasharray:none;stroke-opacity:0.1">
          <path
             style="fill:none;stroke:#000000;stroke-width:0.847806;stroke-miterlimit:4;stroke-dasharray:none;stroke-opacity:0.1"
             d="m 8.33259,-1.22361 1.06349,-0.15617 0.62382,0.06064 1.7592,0.79639 v 1.0455 L 10.0199,1.31914 9.39608,1.37978 8.33259,1.22361 7.82804,3.10662 8.82714,3.50312 9.33704,3.86753 10.4624,5.43686 9.93966,6.34228 8.0179,6.15235 7.44736,5.89297 6.60443,5.22597 5.22597,6.60443 5.89297,7.44736 6.15235,8.0179 6.34228,9.93966 5.43686,10.4624 3.86753,9.33704 3.50312,8.82714 3.10662,7.82804 1.22361,8.33259 1.37978,9.39608 1.31914,10.0199 0.52275,11.7791 h -1.0455 l -0.79639,-1.7592 -0.06064,-0.62382 0.15617,-1.06349 -1.88301,-0.50455 -0.3965,0.9991 -0.36441,0.5099 -1.56933,1.12536 -0.90542,-0.52274 0.18993,-1.92176 0.25938,-0.57054 0.667,-0.84293 -1.37846,-1.37846 -0.84293,0.667 -0.57054,0.25938 -1.92176,0.18993 -0.52274,-0.90542 1.12536,-1.56933 0.5099,-0.36441 0.9991,-0.3965 -0.50455,-1.88301 -1.06349,0.15617 -0.62382,-0.06064 -1.7592,-0.79639 v -1.0455 l 1.7592,-0.79639 0.62382,-0.06064 1.06349,0.15617 0.50455,-1.88301 -0.9991,-0.3965 -0.5099,-0.36441 -1.12536,-1.56933 0.52274,-0.90542 1.92176,0.18993 0.57054,0.25938 0.84293,0.667 1.37846,-1.37846 -0.667,-0.84293 -0.25938,-0.57054 -0.18993,-1.92176 0.90542,-0.52274 1.56933,1.12536 0.36441,0.5099 0.3965,0.9991 1.88301,-0.50455 -0.15617,-1.06349 0.06064,-0.62382 0.79639,-1.7592 h 1.0455 l 0.79639,1.7592 0.06064,0.62382 -0.15617,1.06349 1.88301,0.50455 0.3965,-0.9991 0.36441,-0.5099 1.56933,-1.12536 0.90542,0.52274 -0.18993,1.92176 -0.25938,0.57054 -0.667,0.84293 1.37846,1.37846 0.84293,-0.667 0.57054,-0.25938 1.92176,-0.18993 0.52274,0.90542 -1.12536,1.56933 -0.5099,0.36441 -0.9991,0.3965 z"
             id="path2033" />
          <circle
             style="fill:none;stroke:#000000;stroke-width:0.847806;stroke-miterlimit:4;stroke-dasharray:none;stroke-opacity:0.1"
             id="circle2035"
             cx="0"
             cy="0"
             r="2.6458333" />
        </g>
        <g
           inkscape:label="Rendered Gears"
           transform="matrix(0.38061344,0,0,0.38061344,24.044376,70.90136)"
           id="g2043"
           style="fill:#000000;fill-opacity:0.02;stroke:none;stroke-width:1.3903;stroke-miterlimit:4;stroke-dasharray:none">
          <path
             style="fill:#000000;fill-opacity:0.02;stroke:none;stroke-width:1.3903;stroke-miterlimit:4;stroke-dasharray:none"
             d="m 8.33259,-1.22361 1.06349,-0.15617 0.62382,0.06064 1.7592,0.79639 v 1.0455 L 10.0199,1.31914 9.39608,1.37978 8.33259,1.22361 7.82804,3.10662 8.82714,3.50312 9.33704,3.86753 10.4624,5.43686 9.93966,6.34228 8.0179,6.15235 7.44736,5.89297 6.60443,5.22597 5.22597,6.60443 5.89297,7.44736 6.15235,8.0179 6.34228,9.93966 5.43686,10.4624 3.86753,9.33704 3.50312,8.82714 3.10662,7.82804 1.22361,8.33259 1.37978,9.39608 1.31914,10.0199 0.52275,11.7791 h -1.0455 l -0.79639,-1.7592 -0.06064,-0.62382 0.15617,-1.06349 -1.88301,-0.50455 -0.3965,0.9991 -0.36441,0.5099 -1.56933,1.12536 -0.90542,-0.52274 0.18993,-1.92176 0.25938,-0.57054 0.667,-0.84293 -1.37846,-1.37846 -0.84293,0.667 -0.57054,0.25938 -1.92176,0.18993 -0.52274,-0.90542 1.12536,-1.56933 0.5099,-0.36441 0.9991,-0.3965 -0.50455,-1.88301 -1.06349,0.15617 -0.62382,-0.06064 -1.7592,-0.79639 v -1.0455 l 1.7592,-0.79639 0.62382,-0.06064 1.06349,0.15617 0.50455,-1.88301 -0.9991,-0.3965 -0.5099,-0.36441 -1.12536,-1.56933 0.52274,-0.90542 1.92176,0.18993 0.57054,0.25938 0.84293,0.667 1.37846,-1.37846 -0.667,-0.84293 -0.25938,-0.57054 -0.18993,-1.92176 0.90542,-0.52274 1.56933,1.12536 0.36441,0.5099 0.3965,0.9991 1.88301,-0.50455 -0.15617,-1.06349 0.06064,-0.62382 0.79639,-1.7592 h 1.0455 l 0.79639,1.7592 0.06064,0.62382 -0.15617,1.06349 1.88301,0.50455 0.3965,-0.9991 0.36441,-0.5099 1.56933,-1.12536 0.90542,0.52274 -0.18993,1.92176 -0.25938,0.57054 -0.667,0.84293 1.37846,1.37846 0.84293,-0.667 0.57054,-0.25938 1.92176,-0.18993 0.52274,0.90542 -1.12536,1.56933 -0.5099,0.36441 -0.9991,0.3965 z"
             id="path2039" />
          <circle
             style="fill:#000000;fill-opacity:0.02;stroke:none;stroke-width:1.3903;stroke-miterlimit:4;stroke-dasharray:none"
             id="circle2041"
             cx="0"
             cy="0"
             r="2.6458333" />
        </g>
      </g>
    </g>
    <g
       id="g2292"
       transform="matrix(0.2630501,0,0,-0.24118132,0.73505133,56.923857)">
      <g
         id="g1949"
         transform="matrix(0.51837897,-0.64287064,0.64287064,0.51837897,-22.383242,40.783757)">
        <g
           inkscape:label="Rendered Gears"
           transform="matrix(0.62415992,0,0,0.62415992,23.878196,48.958069)"
           id="g834"
           style="stroke:#000000;stroke-width:0.847806;stroke-miterlimit:4;stroke-dasharray:none;stroke-opacity:0.1">
          <path
             style="fill:none;stroke:#000000;stroke-width:0.847806;stroke-miterlimit:4;stroke-dasharray:none;stroke-opacity:0.1"
             d="m 8.33259,-1.22361 1.06349,-0.15617 0.62382,0.06064 1.7592,0.79639 v 1.0455 L 10.0199,1.31914 9.39608,1.37978 8.33259,1.22361 7.82804,3.10662 8.82714,3.50312 9.33704,3.86753 10.4624,5.43686 9.93966,6.34228 8.0179,6.15235 7.44736,5.89297 6.60443,5.22597 5.22597,6.60443 5.89297,7.44736 6.15235,8.0179 6.34228,9.93966 5.43686,10.4624 3.86753,9.33704 3.50312,8.82714 3.10662,7.82804 1.22361,8.33259 1.37978,9.39608 1.31914,10.0199 0.52275,11.7791 h -1.0455 l -0.79639,-1.7592 -0.06064,-0.62382 0.15617,-1.06349 -1.88301,-0.50455 -0.3965,0.9991 -0.36441,0.5099 -1.56933,1.12536 -0.90542,-0.52274 0.18993,-1.92176 0.25938,-0.57054 0.667,-0.84293 -1.37846,-1.37846 -0.84293,0.667 -0.57054,0.25938 -1.92176,0.18993 -0.52274,-0.90542 1.12536,-1.56933 0.5099,-0.36441 0.9991,-0.3965 -0.50455,-1.88301 -1.06349,0.15617 -0.62382,-0.06064 -1.7592,-0.79639 v -1.0455 l 1.7592,-0.79639 0.62382,-0.06064 1.06349,0.15617 0.50455,-1.88301 -0.9991,-0.3965 -0.5099,-0.36441 -1.12536,-1.56933 0.52274,-0.90542 1.92176,0.18993 0.57054,0.25938 0.84293,0.667 1.37846,-1.37846 -0.667,-0.84293 -0.25938,-0.57054 -0.18993,-1.92176 0.90542,-0.52274 1.56933,1.12536 0.36441,0.5099 0.3965,0.9991 1.88301,-0.50455 -0.15617,-1.06349 0.06064,-0.62382 0.79639,-1.7592 h 1.0455 l 0.79639,1.7592 0.06064,0.62382 -0.15617,1.06349 1.88301,0.50455 0.3965,-0.9991 0.36441,-0.5099 1.56933,-1.12536 0.90542,0.52274 -0.18993,1.92176 -0.25938,0.57054 -0.667,0.84293 1.37846,1.37846 0.84293,-0.667 0.57054,-0.25938 1.92176,-0.18993 0.52274,0.90542 -1.12536,1.56933 -0.5099,0.36441 -0.9991,0.3965 z"
             id="path830" />
          <circle
             style="fill:none;stroke:#000000;stroke-width:0.847806;stroke-miterlimit:4;stroke-dasharray:none;stroke-opacity:0.1"
             id="path832"
             cx="0"
             cy="0"
             r="2.6458333" />
        </g>
        <g
           inkscape:label="Rendered Gears"
           transform="rotate(-48.781444,94.11758,-16.330687)"
           id="g878"
           style="fill:#000000;fill-opacity:0.02;stroke:none;stroke-width:0.529167;stroke-miterlimit:4;stroke-dasharray:none">
          <path
             style="fill:#000000;fill-opacity:0.02;stroke:none;stroke-width:0.529167;stroke-miterlimit:4;stroke-dasharray:none"
             d="M 3.24064,-0.9203 4.5678,-1.2972 4.88099,-1.30786 6.72592,-0.39581 V 0.39581 L 4.88099,1.30786 4.5678,1.2972 3.24064,0.9203 2.41732,2.34632 3.40731,3.30723 3.57313,3.57313 3.70574,5.62692 3.02018,6.02272 1.30786,4.88099 1.16049,4.60443 0.82331,3.26662 H -0.82331 L -1.16049,4.60443 -1.30786,4.88099 -3.02018,6.02272 -3.70574,5.62692 -3.57313,3.57313 -3.40731,3.30723 -2.41732,2.34632 -3.24064,0.9203 -4.5678,1.2972 -4.88099,1.30786 -6.72592,0.39581 v -0.79162 l 1.84493,-0.91205 0.31319,0.01066 1.32716,0.3769 0.82332,-1.42602 -0.98999,-0.96091 -0.16582,-0.2659 -0.13261,-2.05379 0.68556,-0.3958 1.71232,1.14173 0.14737,0.27656 0.33718,1.33781 h 1.64662 l 0.33718,-1.33781 0.14737,-0.27656 1.71232,-1.14173 0.68556,0.3958 -0.13261,2.05379 -0.16582,0.2659 -0.98999,0.96091 z"
             id="path874" />
          <circle
             style="fill:#000000;fill-opacity:0.02;stroke:none;stroke-width:0.529167;stroke-miterlimit:4;stroke-dasharray:none"
             id="path876"
             cx="0"
             cy="0"
             r="2.6458333" />
        </g>
        <g
           inkscape:label="Rendered Gears"
           transform="matrix(0.7007446,0,0,0.7007446,44.402236,45.335933)"
           id="g908"
           style="stroke:#000000;stroke-width:0.755149;stroke-miterlimit:4;stroke-dasharray:none;stroke-opacity:0.05">
          <path
             style="fill:none;stroke:#000000;stroke-width:0.755149;stroke-miterlimit:4;stroke-dasharray:none;stroke-opacity:0.05"
             d="M 3.24064,-0.9203 4.5678,-1.2972 4.88099,-1.30786 6.72592,-0.39581 V 0.39581 L 4.88099,1.30786 4.5678,1.2972 3.24064,0.9203 2.41732,2.34632 3.40731,3.30723 3.57313,3.57313 3.70574,5.62692 3.02018,6.02272 1.30786,4.88099 1.16049,4.60443 0.82331,3.26662 H -0.82331 L -1.16049,4.60443 -1.30786,4.88099 -3.02018,6.02272 -3.70574,5.62692 -3.57313,3.57313 -3.40731,3.30723 -2.41732,2.34632 -3.24064,0.9203 -4.5678,1.2972 -4.88099,1.30786 -6.72592,0.39581 v -0.79162 l 1.84493,-0.91205 0.31319,0.01066 1.32716,0.3769 0.82332,-1.42602 -0.98999,-0.96091 -0.16582,-0.2659 -0.13261,-2.05379 0.68556,-0.3958 1.71232,1.14173 0.14737,0.27656 0.33718,1.33781 h 1.64662 l 0.33718,-1.33781 0.14737,-0.27656 1.71232,-1.14173 0.68556,0.3958 -0.13261,2.05379 -0.16582,0.2659 -0.98999,0.96091 z"
             id="path904" />
          <circle
             style="fill:none;stroke:#000000;stroke-width:0.755149;stroke-miterlimit:4;stroke-dasharray:none;stroke-opacity:0.05"
             id="circle906"
             cx="0"
             cy="0"
             r="2.6458333" />
        </g>
        <g
           inkscape:label="Rendered Gears"
           transform="matrix(0.62415992,0,0,0.62415992,34.486631,30.986271)"
           id="g1674"
           style="stroke:#000000;stroke-width:0.847806;stroke-miterlimit:4;stroke-dasharray:none;stroke-opacity:0.1">
          <path
             style="fill:none;stroke:#000000;stroke-width:0.847806;stroke-miterlimit:4;stroke-dasharray:none;stroke-opacity:0.1"
             d="m 8.33259,-1.22361 1.06349,-0.15617 0.62382,0.06064 1.7592,0.79639 v 1.0455 L 10.0199,1.31914 9.39608,1.37978 8.33259,1.22361 7.82804,3.10662 8.82714,3.50312 9.33704,3.86753 10.4624,5.43686 9.93966,6.34228 8.0179,6.15235 7.44736,5.89297 6.60443,5.22597 5.22597,6.60443 5.89297,7.44736 6.15235,8.0179 6.34228,9.93966 5.43686,10.4624 3.86753,9.33704 3.50312,8.82714 3.10662,7.82804 1.22361,8.33259 1.37978,9.39608 1.31914,10.0199 0.52275,11.7791 h -1.0455 l -0.79639,-1.7592 -0.06064,-0.62382 0.15617,-1.06349 -1.88301,-0.50455 -0.3965,0.9991 -0.36441,0.5099 -1.56933,1.12536 -0.90542,-0.52274 0.18993,-1.92176 0.25938,-0.57054 0.667,-0.84293 -1.37846,-1.37846 -0.84293,0.667 -0.57054,0.25938 -1.92176,0.18993 -0.52274,-0.90542 1.12536,-1.56933 0.5099,-0.36441 0.9991,-0.3965 -0.50455,-1.88301 -1.06349,0.15617 -0.62382,-0.06064 -1.7592,-0.79639 v -1.0455 l 1.7592,-0.79639 0.62382,-0.06064 1.06349,0.15617 0.50455,-1.88301 -0.9991,-0.3965 -0.5099,-0.36441 -1.12536,-1.56933 0.52274,-0.90542 1.92176,0.18993 0.57054,0.25938 0.84293,0.667 1.37846,-1.37846 -0.667,-0.84293 -0.25938,-0.57054 -0.18993,-1.92176 0.90542,-0.52274 1.56933,1.12536 0.36441,0.5099 0.3965,0.9991 1.88301,-0.50455 -0.15617,-1.06349 0.06064,-0.62382 0.79639,-1.7592 h 1.0455 l 0.79639,1.7592 0.06064,0.62382 -0.15617,1.06349 1.88301,0.50455 0.3965,-0.9991 0.36441,-0.5099 1.56933,-1.12536 0.90542,0.52274 -0.18993,1.92176 -0.25938,0.57054 -0.667,0.84293 1.37846,1.37846 0.84293,-0.667 0.57054,-0.25938 1.92176,-0.18993 0.52274,0.90542 -1.12536,1.56933 -0.5099,0.36441 -0.9991,0.3965 z"
             id="path1670" />
          <circle
             style="fill:none;stroke:#000000;stroke-width:0.847806;stroke-miterlimit:4;stroke-dasharray:none;stroke-opacity:0.1"
             id="circle1672"
             cx="0"
             cy="0"
             r="2.6458333" />
        </g>
        <g
           inkscape:label="Rendered Gears"
           transform="matrix(0.38061344,0,0,0.38061344,24.044376,70.90136)"
           id="g1680"
           style="fill:#000000;fill-opacity:0.02;stroke:none;stroke-width:1.3903;stroke-miterlimit:4;stroke-dasharray:none">
          <path
             style="fill:#000000;fill-opacity:0.02;stroke:none;stroke-width:1.3903;stroke-miterlimit:4;stroke-dasharray:none"
             d="m 8.33259,-1.22361 1.06349,-0.15617 0.62382,0.06064 1.7592,0.79639 v 1.0455 L 10.0199,1.31914 9.39608,1.37978 8.33259,1.22361 7.82804,3.10662 8.82714,3.50312 9.33704,3.86753 10.4624,5.43686 9.93966,6.34228 8.0179,6.15235 7.44736,5.89297 6.60443,5.22597 5.22597,6.60443 5.89297,7.44736 6.15235,8.0179 6.34228,9.93966 5.43686,10.4624 3.86753,9.33704 3.50312,8.82714 3.10662,7.82804 1.22361,8.33259 1.37978,9.39608 1.31914,10.0199 0.52275,11.7791 h -1.0455 l -0.79639,-1.7592 -0.06064,-0.62382 0.15617,-1.06349 -1.88301,-0.50455 -0.3965,0.9991 -0.36441,0.5099 -1.56933,1.12536 -0.90542,-0.52274 0.18993,-1.92176 0.25938,-0.57054 0.667,-0.84293 -1.37846,-1.37846 -0.84293,0.667 -0.57054,0.25938 -1.92176,0.18993 -0.52274,-0.90542 1.12536,-1.56933 0.5099,-0.36441 0.9991,-0.3965 -0.50455,-1.88301 -1.06349,0.15617 -0.62382,-0.06064 -1.7592,-0.79639 v -1.0455 l 1.7592,-0.79639 0.62382,-0.06064 1.06349,0.15617 0.50455,-1.88301 -0.9991,-0.3965 -0.5099,-0.36441 -1.12536,-1.56933 0.52274,-0.90542 1.92176,0.18993 0.57054,0.25938 0.84293,0.667 1.37846,-1.37846 -0.667,-0.84293 -0.25938,-0.57054 -0.18993,-1.92176 0.90542,-0.52274 1.56933,1.12536 0.36441,0.5099 0.3965,0.9991 1.88301,-0.50455 -0.15617,-1.06349 0.06064,-0.62382 0.79639,-1.7592 h 1.0455 l 0.79639,1.7592 0.06064,0.62382 -0.15617,1.06349 1.88301,0.50455 0.3965,-0.9991 0.36441,-0.5099 1.56933,-1.12536 0.90542,0.52274 -0.18993,1.92176 -0.25938,0.57054 -0.667,0.84293 1.37846,1.37846 0.84293,-0.667 0.57054,-0.25938 1.92176,-0.18993 0.52274,0.90542 -1.12536,1.56933 -0.5099,0.36441 -0.9991,0.3965 z"
             id="path1676" />
          <circle
             style="fill:#000000;fill-opacity:0.02;stroke:none;stroke-width:1.3903;stroke-miterlimit:4;stroke-dasharray:none"
             id="circle1678"
             cx="0"
             cy="0"
             r="2.6458333" />
        </g>
      </g>
      <g
         id="g2077"
         transform="matrix(0.25898025,-0.32117584,0.32117584,0.25898025,-0.7566214,13.513989)">
        <g
           inkscape:label="Rendered Gears"
           transform="matrix(0.62415992,0,0,0.62415992,23.878196,48.958069)"
           id="g2051"
           style="stroke:#000000;stroke-width:0.847806;stroke-miterlimit:4;stroke-dasharray:none;stroke-opacity:0.1">
          <path
             style="fill:none;stroke:#000000;stroke-width:0.847806;stroke-miterlimit:4;stroke-dasharray:none;stroke-opacity:0.1"
             d="m 8.33259,-1.22361 1.06349,-0.15617 0.62382,0.06064 1.7592,0.79639 v 1.0455 L 10.0199,1.31914 9.39608,1.37978 8.33259,1.22361 7.82804,3.10662 8.82714,3.50312 9.33704,3.86753 10.4624,5.43686 9.93966,6.34228 8.0179,6.15235 7.44736,5.89297 6.60443,5.22597 5.22597,6.60443 5.89297,7.44736 6.15235,8.0179 6.34228,9.93966 5.43686,10.4624 3.86753,9.33704 3.50312,8.82714 3.10662,7.82804 1.22361,8.33259 1.37978,9.39608 1.31914,10.0199 0.52275,11.7791 h -1.0455 l -0.79639,-1.7592 -0.06064,-0.62382 0.15617,-1.06349 -1.88301,-0.50455 -0.3965,0.9991 -0.36441,0.5099 -1.56933,1.12536 -0.90542,-0.52274 0.18993,-1.92176 0.25938,-0.57054 0.667,-0.84293 -1.37846,-1.37846 -0.84293,0.667 -0.57054,0.25938 -1.92176,0.18993 -0.52274,-0.90542 1.12536,-1.56933 0.5099,-0.36441 0.9991,-0.3965 -0.50455,-1.88301 -1.06349,0.15617 -0.62382,-0.06064 -1.7592,-0.79639 v -1.0455 l 1.7592,-0.79639 0.62382,-0.06064 1.06349,0.15617 0.50455,-1.88301 -0.9991,-0.3965 -0.5099,-0.36441 -1.12536,-1.56933 0.52274,-0.90542 1.92176,0.18993 0.57054,0.25938 0.84293,0.667 1.37846,-1.37846 -0.667,-0.84293 -0.25938,-0.57054 -0.18993,-1.92176 0.90542,-0.52274 1.56933,1.12536 0.36441,0.5099 0.3965,0.9991 1.88301,-0.50455 -0.15617,-1.06349 0.06064,-0.62382 0.79639,-1.7592 h 1.0455 l 0.79639,1.7592 0.06064,0.62382 -0.15617,1.06349 1.88301,0.50455 0.3965,-0.9991 0.36441,-0.5099 1.56933,-1.12536 0.90542,0.52274 -0.18993,1.92176 -0.25938,0.57054 -0.667,0.84293 1.37846,1.37846 0.84293,-0.667 0.57054,-0.25938 1.92176,-0.18993 0.52274,0.90542 -1.12536,1.56933 -0.5099,0.36441 -0.9991,0.3965 z"
             id="path2047" />
          <circle
             style="fill:none;stroke:#000000;stroke-width:0.847806;stroke-miterlimit:4;stroke-dasharray:none;stroke-opacity:0.1"
             id="circle2049"
             cx="0"
             cy="0"
             r="2.6458333" />
        </g>
        <g
           inkscape:label="Rendered Gears"
           transform="rotate(-48.781444,94.11758,-16.330687)"
           id="g2057"
           style="fill:#000000;fill-opacity:0.02;stroke:none;stroke-width:0.529167;stroke-miterlimit:4;stroke-dasharray:none">
          <path
             style="fill:#000000;fill-opacity:0.02;stroke:none;stroke-width:0.529167;stroke-miterlimit:4;stroke-dasharray:none"
             d="M 3.24064,-0.9203 4.5678,-1.2972 4.88099,-1.30786 6.72592,-0.39581 V 0.39581 L 4.88099,1.30786 4.5678,1.2972 3.24064,0.9203 2.41732,2.34632 3.40731,3.30723 3.57313,3.57313 3.70574,5.62692 3.02018,6.02272 1.30786,4.88099 1.16049,4.60443 0.82331,3.26662 H -0.82331 L -1.16049,4.60443 -1.30786,4.88099 -3.02018,6.02272 -3.70574,5.62692 -3.57313,3.57313 -3.40731,3.30723 -2.41732,2.34632 -3.24064,0.9203 -4.5678,1.2972 -4.88099,1.30786 -6.72592,0.39581 v -0.79162 l 1.84493,-0.91205 0.31319,0.01066 1.32716,0.3769 0.82332,-1.42602 -0.98999,-0.96091 -0.16582,-0.2659 -0.13261,-2.05379 0.68556,-0.3958 1.71232,1.14173 0.14737,0.27656 0.33718,1.33781 h 1.64662 l 0.33718,-1.33781 0.14737,-0.27656 1.71232,-1.14173 0.68556,0.3958 -0.13261,2.05379 -0.16582,0.2659 -0.98999,0.96091 z"
             id="path2053" />
          <circle
             style="fill:#000000;fill-opacity:0.02;stroke:none;stroke-width:0.529167;stroke-miterlimit:4;stroke-dasharray:none"
             id="circle2055"
             cx="0"
             cy="0"
             r="2.6458333" />
        </g>
        <g
           inkscape:label="Rendered Gears"
           transform="matrix(0.7007446,0,0,0.7007446,44.402236,45.335933)"
           id="g2063"
           style="stroke:#000000;stroke-width:0.755149;stroke-miterlimit:4;stroke-dasharray:none;stroke-opacity:0.05">
          <path
             style="fill:none;stroke:#000000;stroke-width:0.755149;stroke-miterlimit:4;stroke-dasharray:none;stroke-opacity:0.05"
             d="M 3.24064,-0.9203 4.5678,-1.2972 4.88099,-1.30786 6.72592,-0.39581 V 0.39581 L 4.88099,1.30786 4.5678,1.2972 3.24064,0.9203 2.41732,2.34632 3.40731,3.30723 3.57313,3.57313 3.70574,5.62692 3.02018,6.02272 1.30786,4.88099 1.16049,4.60443 0.82331,3.26662 H -0.82331 L -1.16049,4.60443 -1.30786,4.88099 -3.02018,6.02272 -3.70574,5.62692 -3.57313,3.57313 -3.40731,3.30723 -2.41732,2.34632 -3.24064,0.9203 -4.5678,1.2972 -4.88099,1.30786 -6.72592,0.39581 v -0.79162 l 1.84493,-0.91205 0.31319,0.01066 1.32716,0.3769 0.82332,-1.42602 -0.98999,-0.96091 -0.16582,-0.2659 -0.13261,-2.05379 0.68556,-0.3958 1.71232,1.14173 0.14737,0.27656 0.33718,1.33781 h 1.64662 l 0.33718,-1.33781 0.14737,-0.27656 1.71232,-1.14173 0.68556,0.3958 -0.13261,2.05379 -0.16582,0.2659 -0.98999,0.96091 z"
             id="path2059" />
          <circle
             style="fill:none;stroke:#000000;stroke-width:0.755149;stroke-miterlimit:4;stroke-dasharray:none;stroke-opacity:0.05"
             id="circle2061"
             cx="0"
             cy="0"
             r="2.6458333" />
        </g>
        <g
           inkscape:label="Rendered Gears"
           transform="matrix(0.62415992,0,0,0.62415992,34.486631,30.986271)"
           id="g2069"
           style="stroke:#000000;stroke-width:0.847806;stroke-miterlimit:4;stroke-dasharray:none;stroke-opacity:0.1">
          <path
             style="fill:none;stroke:#000000;stroke-width:0.847806;stroke-miterlimit:4;stroke-dasharray:none;stroke-opacity:0.1"
             d="m 8.33259,-1.22361 1.06349,-0.15617 0.62382,0.06064 1.7592,0.79639 v 1.0455 L 10.0199,1.31914 9.39608,1.37978 8.33259,1.22361 7.82804,3.10662 8.82714,3.50312 9.33704,3.86753 10.4624,5.43686 9.93966,6.34228 8.0179,6.15235 7.44736,5.89297 6.60443,5.22597 5.22597,6.60443 5.89297,7.44736 6.15235,8.0179 6.34228,9.93966 5.43686,10.4624 3.86753,9.33704 3.50312,8.82714 3.10662,7.82804 1.22361,8.33259 1.37978,9.39608 1.31914,10.0199 0.52275,11.7791 h -1.0455 l -0.79639,-1.7592 -0.06064,-0.62382 0.15617,-1.06349 -1.88301,-0.50455 -0.3965,0.9991 -0.36441,0.5099 -1.56933,1.12536 -0.90542,-0.52274 0.18993,-1.92176 0.25938,-0.57054 0.667,-0.84293 -1.37846,-1.37846 -0.84293,0.667 -0.57054,0.25938 -1.92176,0.18993 -0.52274,-0.90542 1.12536,-1.56933 0.5099,-0.36441 0.9991,-0.3965 -0.50455,-1.88301 -1.06349,0.15617 -0.62382,-0.06064 -1.7592,-0.79639 v -1.0455 l 1.7592,-0.79639 0.62382,-0.06064 1.06349,0.15617 0.50455,-1.88301 -0.9991,-0.3965 -0.5099,-0.36441 -1.12536,-1.56933 0.52274,-0.90542 1.92176,0.18993 0.57054,0.25938 0.84293,0.667 1.37846,-1.37846 -0.667,-0.84293 -0.25938,-0.57054 -0.18993,-1.92176 0.90542,-0.52274 1.56933,1.12536 0.36441,0.5099 0.3965,0.9991 1.88301,-0.50455 -0.15617,-1.06349 0.06064,-0.62382 0.79639,-1.7592 h 1.0455 l 0.79639,1.7592 0.06064,0.62382 -0.15617,1.06349 1.88301,0.50455 0.3965,-0.9991 0.36441,-0.5099 1.56933,-1.12536 0.90542,0.52274 -0.18993,1.92176 -0.25938,0.57054 -0.667,0.84293 1.37846,1.37846 0.84293,-0.667 0.57054,-0.25938 1.92176,-0.18993 0.52274,0.90542 -1.12536,1.56933 -0.5099,0.36441 -0.9991,0.3965 z"
             id="path2065" />
          <circle
             style="fill:none;stroke:#000000;stroke-width:0.847806;stroke-miterlimit:4;stroke-dasharray:none;stroke-opacity:0.1"
             id="circle2067"
             cx="0"
             cy="0"
             r="2.6458333" />
        </g>
        <g
           inkscape:label="Rendered Gears"
           transform="matrix(0.38061344,0,0,0.38061344,24.044376,70.90136)"
           id="g2075"
           style="fill:#000000;fill-opacity:0.02;stroke:none;stroke-width:1.3903;stroke-miterlimit:4;stroke-dasharray:none">
          <path
             style="fill:#000000;fill-opacity:0.02;stroke:none;stroke-width:1.3903;stroke-miterlimit:4;stroke-dasharray:none"
             d="m 8.33259,-1.22361 1.06349,-0.15617 0.62382,0.06064 1.7592,0.79639 v 1.0455 L 10.0199,1.31914 9.39608,1.37978 8.33259,1.22361 7.82804,3.10662 8.82714,3.50312 9.33704,3.86753 10.4624,5.43686 9.93966,6.34228 8.0179,6.15235 7.44736,5.89297 6.60443,5.22597 5.22597,6.60443 5.89297,7.44736 6.15235,8.0179 6.34228,9.93966 5.43686,10.4624 3.86753,9.33704 3.50312,8.82714 3.10662,7.82804 1.22361,8.33259 1.37978,9.39608 1.31914,10.0199 0.52275,11.7791 h -1.0455 l -0.79639,-1.7592 -0.06064,-0.62382 0.15617,-1.06349 -1.88301,-0.50455 -0.3965,0.9991 -0.36441,0.5099 -1.56933,1.12536 -0.90542,-0.52274 0.18993,-1.92176 0.25938,-0.57054 0.667,-0.84293 -1.37846,-1.37846 -0.84293,0.667 -0.57054,0.25938 -1.92176,0.18993 -0.52274,-0.90542 1.12536,-1.56933 0.5099,-0.36441 0.9991,-0.3965 -0.50455,-1.88301 -1.06349,0.15617 -0.62382,-0.06064 -1.7592,-0.79639 v -1.0455 l 1.7592,-0.79639 0.62382,-0.06064 1.06349,0.15617 0.50455,-1.88301 -0.9991,-0.3965 -0.5099,-0.36441 -1.12536,-1.56933 0.52274,-0.90542 1.92176,0.18993 0.57054,0.25938 0.84293,0.667 1.37846,-1.37846 -0.667,-0.84293 -0.25938,-0.57054 -0.18993,-1.92176 0.90542,-0.52274 1.56933,1.12536 0.36441,0.5099 0.3965,0.9991 1.88301,-0.50455 -0.15617,-1.06349 0.06064,-0.62382 0.79639,-1.7592 h 1.0455 l 0.79639,1.7592 0.06064,0.62382 -0.15617,1.06349 1.88301,0.50455 0.3965,-0.9991 0.36441,-0.5099 1.56933,-1.12536 0.90542,0.52274 -0.18993,1.92176 -0.25938,0.57054 -0.667,0.84293 1.37846,1.37846 0.84293,-0.667 0.57054,-0.25938 1.92176,-0.18993 0.52274,0.90542 -1.12536,1.56933 -0.5099,0.36441 -0.9991,0.3965 z"
             id="path2071" />
          <circle
             style="fill:#000000;fill-opacity:0.02;stroke:none;stroke-width:1.3903;stroke-miterlimit:4;stroke-dasharray:none"
             id="circle2073"
             cx="0"
             cy="0"
             r="2.6458333" />
        </g>
      </g>
      <g
         id="g2109"
         transform="matrix(0.25898025,-0.32117584,0.32117584,0.25898025,-13.81816,66.68897)">
        <g
           inkscape:label="Rendered Gears"
           transform="matrix(0.62415992,0,0,0.62415992,23.878196,48.958069)"
           id="g2083"
           style="stroke:#000000;stroke-width:0.847806;stroke-miterlimit:4;stroke-dasharray:none;stroke-opacity:0.1">
          <path
             style="fill:none;stroke:#000000;stroke-width:0.847806;stroke-miterlimit:4;stroke-dasharray:none;stroke-opacity:0.1"
             d="m 8.33259,-1.22361 1.06349,-0.15617 0.62382,0.06064 1.7592,0.79639 v 1.0455 L 10.0199,1.31914 9.39608,1.37978 8.33259,1.22361 7.82804,3.10662 8.82714,3.50312 9.33704,3.86753 10.4624,5.43686 9.93966,6.34228 8.0179,6.15235 7.44736,5.89297 6.60443,5.22597 5.22597,6.60443 5.89297,7.44736 6.15235,8.0179 6.34228,9.93966 5.43686,10.4624 3.86753,9.33704 3.50312,8.82714 3.10662,7.82804 1.22361,8.33259 1.37978,9.39608 1.31914,10.0199 0.52275,11.7791 h -1.0455 l -0.79639,-1.7592 -0.06064,-0.62382 0.15617,-1.06349 -1.88301,-0.50455 -0.3965,0.9991 -0.36441,0.5099 -1.56933,1.12536 -0.90542,-0.52274 0.18993,-1.92176 0.25938,-0.57054 0.667,-0.84293 -1.37846,-1.37846 -0.84293,0.667 -0.57054,0.25938 -1.92176,0.18993 -0.52274,-0.90542 1.12536,-1.56933 0.5099,-0.36441 0.9991,-0.3965 -0.50455,-1.88301 -1.06349,0.15617 -0.62382,-0.06064 -1.7592,-0.79639 v -1.0455 l 1.7592,-0.79639 0.62382,-0.06064 1.06349,0.15617 0.50455,-1.88301 -0.9991,-0.3965 -0.5099,-0.36441 -1.12536,-1.56933 0.52274,-0.90542 1.92176,0.18993 0.57054,0.25938 0.84293,0.667 1.37846,-1.37846 -0.667,-0.84293 -0.25938,-0.57054 -0.18993,-1.92176 0.90542,-0.52274 1.56933,1.12536 0.36441,0.5099 0.3965,0.9991 1.88301,-0.50455 -0.15617,-1.06349 0.06064,-0.62382 0.79639,-1.7592 h 1.0455 l 0.79639,1.7592 0.06064,0.62382 -0.15617,1.06349 1.88301,0.50455 0.3965,-0.9991 0.36441,-0.5099 1.56933,-1.12536 0.90542,0.52274 -0.18993,1.92176 -0.25938,0.57054 -0.667,0.84293 1.37846,1.37846 0.84293,-0.667 0.57054,-0.25938 1.92176,-0.18993 0.52274,0.90542 -1.12536,1.56933 -0.5099,0.36441 -0.9991,0.3965 z"
             id="path2079" />
          <circle
             style="fill:none;stroke:#000000;stroke-width:0.847806;stroke-miterlimit:4;stroke-dasharray:none;stroke-opacity:0.1"
             id="circle2081"
             cx="0"
             cy="0"
             r="2.6458333" />
        </g>
        <g
           inkscape:label="Rendered Gears"
           transform="rotate(-48.781444,94.11758,-16.330687)"
           id="g2089"
           style="fill:#000000;fill-opacity:0.02;stroke:none;stroke-width:0.529167;stroke-miterlimit:4;stroke-dasharray:none">
          <path
             style="fill:#000000;fill-opacity:0.02;stroke:none;stroke-width:0.529167;stroke-miterlimit:4;stroke-dasharray:none"
             d="M 3.24064,-0.9203 4.5678,-1.2972 4.88099,-1.30786 6.72592,-0.39581 V 0.39581 L 4.88099,1.30786 4.5678,1.2972 3.24064,0.9203 2.41732,2.34632 3.40731,3.30723 3.57313,3.57313 3.70574,5.62692 3.02018,6.02272 1.30786,4.88099 1.16049,4.60443 0.82331,3.26662 H -0.82331 L -1.16049,4.60443 -1.30786,4.88099 -3.02018,6.02272 -3.70574,5.62692 -3.57313,3.57313 -3.40731,3.30723 -2.41732,2.34632 -3.24064,0.9203 -4.5678,1.2972 -4.88099,1.30786 -6.72592,0.39581 v -0.79162 l 1.84493,-0.91205 0.31319,0.01066 1.32716,0.3769 0.82332,-1.42602 -0.98999,-0.96091 -0.16582,-0.2659 -0.13261,-2.05379 0.68556,-0.3958 1.71232,1.14173 0.14737,0.27656 0.33718,1.33781 h 1.64662 l 0.33718,-1.33781 0.14737,-0.27656 1.71232,-1.14173 0.68556,0.3958 -0.13261,2.05379 -0.16582,0.2659 -0.98999,0.96091 z"
             id="path2085" />
          <circle
             style="fill:#000000;fill-opacity:0.02;stroke:none;stroke-width:0.529167;stroke-miterlimit:4;stroke-dasharray:none"
             id="circle2087"
             cx="0"
             cy="0"
             r="2.6458333" />
        </g>
        <g
           inkscape:label="Rendered Gears"
           transform="matrix(0.7007446,0,0,0.7007446,44.402236,45.335933)"
           id="g2095"
           style="stroke:#000000;stroke-width:0.755149;stroke-miterlimit:4;stroke-dasharray:none;stroke-opacity:0.05">
          <path
             style="fill:none;stroke:#000000;stroke-width:0.755149;stroke-miterlimit:4;stroke-dasharray:none;stroke-opacity:0.05"
             d="M 3.24064,-0.9203 4.5678,-1.2972 4.88099,-1.30786 6.72592,-0.39581 V 0.39581 L 4.88099,1.30786 4.5678,1.2972 3.24064,0.9203 2.41732,2.34632 3.40731,3.30723 3.57313,3.57313 3.70574,5.62692 3.02018,6.02272 1.30786,4.88099 1.16049,4.60443 0.82331,3.26662 H -0.82331 L -1.16049,4.60443 -1.30786,4.88099 -3.02018,6.02272 -3.70574,5.62692 -3.57313,3.57313 -3.40731,3.30723 -2.41732,2.34632 -3.24064,0.9203 -4.5678,1.2972 -4.88099,1.30786 -6.72592,0.39581 v -0.79162 l 1.84493,-0.91205 0.31319,0.01066 1.32716,0.3769 0.82332,-1.42602 -0.98999,-0.96091 -0.16582,-0.2659 -0.13261,-2.05379 0.68556,-0.3958 1.71232,1.14173 0.14737,0.27656 0.33718,1.33781 h 1.64662 l 0.33718,-1.33781 0.14737,-0.27656 1.71232,-1.14173 0.68556,0.3958 -0.13261,2.05379 -0.16582,0.2659 -0.98999,0.96091 z"
             id="path2091" />
          <circle
             style="fill:none;stroke:#000000;stroke-width:0.755149;stroke-miterlimit:4;stroke-dasharray:none;stroke-opacity:0.05"
             id="circle2093"
             cx="0"
             cy="0"
             r="2.6458333" />
        </g>
        <g
           inkscape:label="Rendered Gears"
           transform="matrix(0.62415992,0,0,0.62415992,34.486631,30.986271)"
           id="g2101"
           style="stroke:#000000;stroke-width:0.847806;stroke-miterlimit:4;stroke-dasharray:none;stroke-opacity:0.1">
          <path
             style="fill:none;stroke:#000000;stroke-width:0.847806;stroke-miterlimit:4;stroke-dasharray:none;stroke-opacity:0.1"
             d="m 8.33259,-1.22361 1.06349,-0.15617 0.62382,0.06064 1.7592,0.79639 v 1.0455 L 10.0199,1.31914 9.39608,1.37978 8.33259,1.22361 7.82804,3.10662 8.82714,3.50312 9.33704,3.86753 10.4624,5.43686 9.93966,6.34228 8.0179,6.15235 7.44736,5.89297 6.60443,5.22597 5.22597,6.60443 5.89297,7.44736 6.15235,8.0179 6.34228,9.93966 5.43686,10.4624 3.86753,9.33704 3.50312,8.82714 3.10662,7.82804 1.22361,8.33259 1.37978,9.39608 1.31914,10.0199 0.52275,11.7791 h -1.0455 l -0.79639,-1.7592 -0.06064,-0.62382 0.15617,-1.06349 -1.88301,-0.50455 -0.3965,0.9991 -0.36441,0.5099 -1.56933,1.12536 -0.90542,-0.52274 0.18993,-1.92176 0.25938,-0.57054 0.667,-0.84293 -1.37846,-1.37846 -0.84293,0.667 -0.57054,0.25938 -1.92176,0.18993 -0.52274,-0.90542 1.12536,-1.56933 0.5099,-0.36441 0.9991,-0.3965 -0.50455,-1.88301 -1.06349,0.15617 -0.62382,-0.06064 -1.7592,-0.79639 v -1.0455 l 1.7592,-0.79639 0.62382,-0.06064 1.06349,0.15617 0.50455,-1.88301 -0.9991,-0.3965 -0.5099,-0.36441 -1.12536,-1.56933 0.52274,-0.90542 1.92176,0.18993 0.57054,0.25938 0.84293,0.667 1.37846,-1.37846 -0.667,-0.84293 -0.25938,-0.57054 -0.18993,-1.92176 0.90542,-0.52274 1.56933,1.12536 0.36441,0.5099 0.3965,0.9991 1.88301,-0.50455 -0.15617,-1.06349 0.06064,-0.62382 0.79639,-1.7592 h 1.0455 l 0.79639,1.7592 0.06064,0.62382 -0.15617,1.06349 1.88301,0.50455 0.3965,-0.9991 0.36441,-0.5099 1.56933,-1.12536 0.90542,0.52274 -0.18993,1.92176 -0.25938,0.57054 -0.667,0.84293 1.37846,1.37846 0.84293,-0.667 0.57054,-0.25938 1.92176,-0.18993 0.52274,0.90542 -1.12536,1.56933 -0.5099,0.36441 -0.9991,0.3965 z"
             id="path2097" />
          <circle
             style="fill:none;stroke:#000000;stroke-width:0.847806;stroke-miterlimit:4;stroke-dasharray:none;stroke-opacity:0.1"
             id="circle2099"
             cx="0"
             cy="0"
             r="2.6458333" />
        </g>
        <g
           inkscape:label="Rendered Gears"
           transform="matrix(0.38061344,0,0,0.38061344,24.044376,70.90136)"
           id="g2107"
           style="fill:#000000;fill-opacity:0.02;stroke:none;stroke-width:1.3903;stroke-miterlimit:4;stroke-dasharray:none">
          <path
             style="fill:#000000;fill-opacity:0.02;stroke:none;stroke-width:1.3903;stroke-miterlimit:4;stroke-dasharray:none"
             d="m 8.33259,-1.22361 1.06349,-0.15617 0.62382,0.06064 1.7592,0.79639 v 1.0455 L 10.0199,1.31914 9.39608,1.37978 8.33259,1.22361 7.82804,3.10662 8.82714,3.50312 9.33704,3.86753 10.4624,5.43686 9.93966,6.34228 8.0179,6.15235 7.44736,5.89297 6.60443,5.22597 5.22597,6.60443 5.89297,7.44736 6.15235,8.0179 6.34228,9.93966 5.43686,10.4624 3.86753,9.33704 3.50312,8.82714 3.10662,7.82804 1.22361,8.33259 1.37978,9.39608 1.31914,10.0199 0.52275,11.7791 h -1.0455 l -0.79639,-1.7592 -0.06064,-0.62382 0.15617,-1.06349 -1.88301,-0.50455 -0.3965,0.9991 -0.36441,0.5099 -1.56933,1.12536 -0.90542,-0.52274 0.18993,-1.92176 0.25938,-0.57054 0.667,-0.84293 -1.37846,-1.37846 -0.84293,0.667 -0.57054,0.25938 -1.92176,0.18993 -0.52274,-0.90542 1.12536,-1.56933 0.5099,-0.36441 0.9991,-0.3965 -0.50455,-1.88301 -1.06349,0.15617 -0.62382,-0.06064 -1.7592,-0.79639 v -1.0455 l 1.7592,-0.79639 0.62382,-0.06064 1.06349,0.15617 0.50455,-1.88301 -0.9991,-0.3965 -0.5099,-0.36441 -1.12536,-1.56933 0.52274,-0.90542 1.92176,0.18993 0.57054,0.25938 0.84293,0.667 1.37846,-1.37846 -0.667,-0.84293 -0.25938,-0.57054 -0.18993,-1.92176 0.90542,-0.52274 1.56933,1.12536 0.36441,0.5099 0.3965,0.9991 1.88301,-0.50455 -0.15617,-1.06349 0.06064,-0.62382 0.79639,-1.7592 h 1.0455 l 0.79639,1.7592 0.06064,0.62382 -0.15617,1.06349 1.88301,0.50455 0.3965,-0.9991 0.36441,-0.5099 1.56933,-1.12536 0.90542,0.52274 -0.18993,1.92176 -0.25938,0.57054 -0.667,0.84293 1.37846,1.37846 0.84293,-0.667 0.57054,-0.25938 1.92176,-0.18993 0.52274,0.90542 -1.12536,1.56933 -0.5099,0.36441 -0.9991,0.3965 z"
             id="path2103" />
          <circle
             style="fill:#000000;fill-opacity:0.02;stroke:none;stroke-width:1.3903;stroke-miterlimit:4;stroke-dasharray:none"
             id="circle2105"
             cx="0"
             cy="0"
             r="2.6458333" />
        </g>
      </g>
    </g>
  </g>
</svg>
