<?xml version="1.0" encoding="UTF-8" standalone="no"?>
<!-- Created with Inkscape (http://www.inkscape.org/) -->

<svg
   sodipodi:docname="near-blockchain-transmission-2.svg"
   inkscape:version="1.1.1 (3bf5ae0, 2021-09-20)"
   id="svg5"
   version="1.1"
   viewBox="0 0 66.14583 84.666669"
   height="320"
   width="250"
   inkscape:export-filename="/media/chrisb/crypto1/eth/near-karts/artwork/images/game/near-blockchain-transmission-2.png"
   inkscape:export-xdpi="307.20001"
   inkscape:export-ydpi="307.20001"
   xmlns:inkscape="http://www.inkscape.org/namespaces/inkscape"
   xmlns:sodipodi="http://sodipodi.sourceforge.net/DTD/sodipodi-0.dtd"
   xmlns:xlink="http://www.w3.org/1999/xlink"
   xmlns="http://www.w3.org/2000/svg"
   xmlns:svg="http://www.w3.org/2000/svg">
  <sodipodi:namedview
     id="namedview7"
     pagecolor="#ffffff"
     bordercolor="#666666"
     borderopacity="1.0"
     inkscape:pageshadow="2"
     inkscape:pageopacity="0.0"
     inkscape:pagecheckerboard="0"
     inkscape:document-units="px"
     showgrid="true"
     units="px"
     inkscape:zoom="0.61185561"
     inkscape:cx="89.890489"
     inkscape:cy="302.35892"
     inkscape:window-width="1366"
     inkscape:window-height="713"
     inkscape:window-x="0"
     inkscape:window-y="0"
     inkscape:window-maximized="1"
     inkscape:current-layer="layer2"
     inkscape:snap-global="false">
    <inkscape:grid
       type="xygrid"
       id="grid824"
       spacingx="2.6458333"
       spacingy="2.6458333"
       empspacing="4" />
  </sodipodi:namedview>
  <defs
     id="defs2">
    <rect
       x="459.57352"
       y="64.033516"
       width="51.498001"
       height="242.61853"
       id="rect26033" />
    <rect
       x="250.40788"
       y="50.506287"
       width="210.52264"
       height="70.508247"
       id="rect11113" />
    <rect
       x="-1.6163563"
       y="-3.5584815"
       width="447.2485"
       height="109.32309"
       id="rect8663" />
    <linearGradient
       id="linearGradient2711"
       inkscape:swatch="solid">
      <stop
         style="stop-color:#000000;stop-opacity:1;"
         offset="0"
         id="stop2709" />
    </linearGradient>
    <filter
       inkscape:collect="always"
       style="color-interpolation-filters:sRGB"
       id="filter46443"
       x="-0.029741508"
       y="-0.017881069"
       width="1.0549376"
       height="1.0357621">
      <feGaussianBlur
         inkscape:collect="always"
         stdDeviation="0.61109176"
         id="feGaussianBlur46445" />
    </filter>
    <filter
       inkscape:collect="always"
       style="color-interpolation-filters:sRGB"
       id="filter46463"
       x="-0.012740818"
       y="-0.012740818"
       width="1.0254816"
       height="1.0254816">
      <feGaussianBlur
         inkscape:collect="always"
         stdDeviation="0.084952273"
         id="feGaussianBlur46465" />
    </filter>
  </defs>
  <g
     inkscape:groupmode="layer"
     id="layer2"
     inkscape:label="Guides">
    <g
       id="g45637"
       style="mix-blend-mode:normal;stroke:#bf93fc;stroke-opacity:1;filter:url(#filter46443)"
       transform="translate(-55.054892,-18.686452)"
       inkscape:export-filename="/media/chrisb/crypto1/eth/near-karts/artwork/game/near-blockchain-transmission-1.png"
       inkscape:export-xdpi="96"
       inkscape:export-ydpi="96">
      <path
         style="fill:none;fill-opacity:1;stroke:#bf93fc;stroke-width:0.529167;stroke-miterlimit:4;stroke-dasharray:none;stroke-opacity:1;stop-color:#000000"
         d="M 60.854166,21.166666 V 103.1875"
         id="path44332" />
      <path
         style="fill:none;fill-opacity:1;stroke:#bf93fc;stroke-width:0.529167;stroke-miterlimit:4;stroke-dasharray:none;stroke-opacity:1;stop-color:#000000"
         d="m 119.0625,39.6875 -58.208334,-10e-7"
         id="path44334"
         sodipodi:nodetypes="cc" />
      <path
         style="fill:none;fill-opacity:1;stroke:#bf93fc;stroke-width:0.529167;stroke-miterlimit:4;stroke-dasharray:none;stroke-opacity:1;stop-color:#000000"
         d="M 119.0625,55.562499 H 66.145832 l -5.291666,-5.291666"
         id="path44336"
         sodipodi:nodetypes="cc" />
      <path
         style="fill:none;fill-opacity:1;stroke:#bf93fc;stroke-width:0.529167;stroke-miterlimit:4;stroke-dasharray:none;stroke-opacity:1;stop-color:#000000"
         d="m 116.41667,47.624999 h -7.9375 L 95.249999,31.75 V 21.166666"
         id="path44508" />
      <path
         style="fill:none;fill-opacity:1;stroke:#bf93fc;stroke-width:0.529167;stroke-miterlimit:4;stroke-dasharray:none;stroke-opacity:1;stop-color:#000000"
         d="m 60.854166,29.104166 47.625004,63.5 7.9375,-1e-6"
         id="path42768"
         sodipodi:nodetypes="cc" />
    </g>
    <g
       id="g46457"
       style="stroke:#000000;stroke-width:0.264583;stroke-miterlimit:4;stroke-dasharray:none;stroke-opacity:1"
       transform="translate(-55.054892,-18.686452)"
       inkscape:export-filename="/media/chrisb/crypto1/eth/near-karts/artwork/game/near-blockchain-transmission-1.png"
       inkscape:export-xdpi="96"
       inkscape:export-ydpi="96">
      <path
         style="fill:none;fill-opacity:1;stroke:#000000;stroke-width:0.264583;stroke-miterlimit:4;stroke-dasharray:none;stroke-opacity:1;stop-color:#000000"
         d="M 60.854166,21.166666 V 103.1875"
         id="path46447" />
      <path
         style="fill:none;fill-opacity:1;stroke:#000000;stroke-width:0.264583;stroke-miterlimit:4;stroke-dasharray:none;stroke-opacity:1;stop-color:#000000"
         d="m 119.0625,39.6875 -58.208334,-10e-7"
         id="path46449"
         sodipodi:nodetypes="cc" />
      <path
         style="fill:none;fill-opacity:1;stroke:#000000;stroke-width:0.264583;stroke-miterlimit:4;stroke-dasharray:none;stroke-opacity:1;stop-color:#000000"
         d="M 119.0625,55.562499 H 66.145832 l -5.291666,-5.291666"
         id="path46451"
         sodipodi:nodetypes="cc" />
      <path
         style="fill:none;fill-opacity:1;stroke:#000000;stroke-width:0.264583;stroke-miterlimit:4;stroke-dasharray:none;stroke-opacity:1;stop-color:#000000"
         d="m 116.41667,47.624999 h -7.9375 L 95.249999,31.75 V 21.166666"
         id="path46453" />
      <path
         style="fill:none;fill-opacity:1;stroke:#000000;stroke-width:0.264583;stroke-miterlimit:4;stroke-dasharray:none;stroke-opacity:1;stop-color:#000000"
         d="m 60.854166,29.104166 47.625004,63.5 7.9375,-1e-6"
         id="path46455"
         sodipodi:nodetypes="cc" />
    </g>
    <image
       width="39.312332"
       height="10.631637"
       preserveAspectRatio="none"
       xlink:href="../near/brand-text-horizontal-cropped-1.png"
       id="image888"
       x="8.8254299"
       y="0.9563961"
       style="opacity:0.75478721" />
  </g>
  <g
     inkscape:label="NEAR Blockchain Transmission"
     inkscape:groupmode="layer"
     id="layer1">
    <g
       inkscape:label="Rendered Gears"
       transform="translate(21.569302,64.922943)"
       id="g1088"
       style="fill:none;fill-opacity:1"
       inkscape:export-filename="/media/chrisb/crypto1/eth/near-karts/artwork/game/near-blockchain-transmission-1.png"
       inkscape:export-xdpi="96"
       inkscape:export-ydpi="96">
      <path
         style="fill:none;fill-opacity:1;stroke:#000000;stroke-width:0.264583"
         d="m 6.48127,-1.84061 2.65433,-0.7538 0.62637,-0.0213 3.68993,1.8241 V 0.79161 L 9.76197,2.61571 9.1356,2.59441 6.48127,1.84061 4.83465,4.69264 6.81463,6.61446 7.14626,7.14626 7.41148,11.2538 6.04037,12.0455 2.61571,9.76197 2.32098,9.20887 1.64662,6.53325 h -3.29324 l -0.67436,2.67562 -0.29473,0.5531 -3.42466,2.28353 -1.37111,-0.7917 0.26522,-4.10754 0.33163,-0.5318 1.97998,-1.92182 -1.64662,-2.85203 -2.65433,0.7538 -0.62637,0.0213 -3.68993,-1.8241 v -1.58322 l 3.68993,-1.8241 0.62637,0.0213 2.65433,0.7538 1.64662,-2.85203 -1.97998,-1.92182 -0.33163,-0.5318 -0.26522,-4.10754 1.37111,-0.7917 3.42466,2.28353 0.29473,0.5531 0.67436,2.67562 h 3.29324 l 0.67436,-2.67562 0.29473,-0.5531 3.42466,-2.28353 1.37111,0.7917 -0.26522,4.10754 -0.33163,0.5318 -1.97998,1.92182 z"
         id="path1084" />
      <circle
         style="fill:none;fill-opacity:1;stroke:#000000;stroke-width:0.264583"
         id="path1086"
         cx="0"
         cy="0"
         r="1.3229166" />
    </g>
    <g
       inkscape:label="Rendered Gears"
       transform="translate(42.921889,37.881071)"
       id="g1589"
       style="fill:none;fill-opacity:1;stroke:#1a0087;stroke-width:0.132292;stroke-miterlimit:4;stroke-dasharray:none;stroke-opacity:1;filter:url(#filter46463)"
       inkscape:export-filename="/media/chrisb/crypto1/eth/near-karts/artwork/game/near-blockchain-transmission-1.png"
       inkscape:export-xdpi="96"
       inkscape:export-ydpi="96">
      <path
         style="fill:none;fill-opacity:1;stroke:#1a0087;stroke-width:0.132292;stroke-miterlimit:4;stroke-dasharray:none;stroke-opacity:1"
         d="m 8.2123,-0.82372 1.0306,-0.10337 0.14426,0.00254 1.20994,0.36993 V 0.55462 L 9.38716,0.92455 9.2429,0.92709 8.2123,0.82372 7.9024,2.38169 8.89411,2.68058 9.02642,2.73813 10.0027,3.54295 9.57825,4.56776 8.3188,4.44649 8.18455,4.39363 7.27195,3.90373 6.38943,5.22452 7.19127,5.88017 7.29149,5.98397 7.88549,7.10114 7.10114,7.88549 5.98397,7.29149 5.88017,7.19127 5.22452,6.38943 3.90373,7.27195 4.39363,8.18455 4.44649,8.3188 4.56776,9.57825 3.54295,10.0027 2.73813,9.02642 2.68058,8.89411 2.38169,7.9024 0.82372,8.2123 0.92709,9.2429 0.92455,9.38716 0.55462,10.5971 H -0.55462 L -0.92455,9.38716 -0.92709,9.2429 -0.82372,8.2123 -2.38169,7.9024 -2.68058,8.89411 -2.73813,9.02642 -3.54295,10.0027 -4.56776,9.57825 -4.44649,8.3188 l 0.05286,-0.13425 0.4899,-0.9126 -1.32079,-0.88252 -0.65565,0.80184 -0.1038,0.10022 -1.11717,0.594 -0.78435,-0.78435 0.594,-1.11717 0.10022,-0.1038 0.80184,-0.65565 -0.88252,-1.32079 -0.9126,0.4899 L -8.3188,4.44649 -9.57825,4.56776 -10.0027,3.54295 -9.02642,2.73813 -8.89411,2.68058 -7.9024,2.38169 -8.2123,0.82372 -9.2429,0.92709 -9.38716,0.92455 -10.5971,0.55462 v -1.10924 l 1.20994,-0.36993 0.14426,-0.00254 1.0306,0.10337 0.3099,-1.55797 -0.99171,-0.29889 -0.13231,-0.05755 -0.97628,-0.80482 0.42445,-1.02481 1.25945,0.12127 0.13425,0.05286 0.9126,0.4899 0.88252,-1.32079 -0.80184,-0.65565 -0.10022,-0.1038 -0.594,-1.11717 0.78435,-0.78435 1.11717,0.594 0.1038,0.10022 0.65565,0.80184 1.32079,-0.88252 -0.4899,-0.9126 -0.05286,-0.13425 -0.12127,-1.25945 1.02481,-0.42445 0.80482,0.97628 0.05755,0.13231 0.29889,0.99171 1.55797,-0.3099 -0.10337,-1.0306 0.00254,-0.14426 0.36993,-1.20994 h 1.10924 l 0.36993,1.20994 0.00254,0.14426 -0.10337,1.0306 1.55797,0.3099 0.29889,-0.99171 0.05755,-0.13231 0.80482,-0.97628 1.02481,0.42445 -0.12127,1.25945 -0.05286,0.13425 -0.4899,0.9126 1.32079,0.88252 0.65565,-0.80184 0.1038,-0.10022 1.11717,-0.594 0.78435,0.78435 -0.594,1.11717 -0.10022,0.1038 -0.80184,0.65565 0.88252,1.32079 0.9126,-0.4899 0.13425,-0.05286 1.25945,-0.12127 0.42445,1.02481 -0.97628,0.80482 -0.13231,0.05755 -0.99171,0.29889 z"
         id="path1585" />
      <circle
         style="fill:none;fill-opacity:1;stroke:#1a0087;stroke-width:0.132292;stroke-miterlimit:4;stroke-dasharray:none;stroke-opacity:1"
         id="path1587"
         cx="0"
         cy="0"
         r="1.3229166" />
    </g>
    <g
       inkscape:label="Rendered Gears"
       transform="translate(30.277323,22.388984)"
       id="g1639"
       style="fill:none;fill-opacity:1;stroke:#272727;stroke-width:0.264583;stroke-miterlimit:4;stroke-dasharray:none;stroke-opacity:1"
       inkscape:export-filename="/media/chrisb/crypto1/eth/near-karts/artwork/game/near-blockchain-transmission-1.png"
       inkscape:export-xdpi="96"
       inkscape:export-ydpi="96">
      <path
         style="fill:none;fill-opacity:1;stroke:#272727;stroke-width:0.264583;stroke-miterlimit:4;stroke-dasharray:none;stroke-opacity:1"
         d="m 8.2123,-0.82372 1.0306,-0.10337 0.14426,0.00254 1.20994,0.36993 V 0.55462 L 9.38716,0.92455 9.2429,0.92709 8.2123,0.82372 7.9024,2.38169 8.89411,2.68058 9.02642,2.73813 10.0027,3.54295 9.57825,4.56776 8.3188,4.44649 8.18455,4.39363 7.27195,3.90373 6.38943,5.22452 7.19127,5.88017 7.29149,5.98397 7.88549,7.10114 7.10114,7.88549 5.98397,7.29149 5.88017,7.19127 5.22452,6.38943 3.90373,7.27195 4.39363,8.18455 4.44649,8.3188 4.56776,9.57825 3.54295,10.0027 2.73813,9.02642 2.68058,8.89411 2.38169,7.9024 0.82372,8.2123 0.92709,9.2429 0.92455,9.38716 0.55462,10.5971 H -0.55462 L -0.92455,9.38716 -0.92709,9.2429 -0.82372,8.2123 -2.38169,7.9024 -2.68058,8.89411 -2.73813,9.02642 -3.54295,10.0027 -4.56776,9.57825 -4.44649,8.3188 l 0.05286,-0.13425 0.4899,-0.9126 -1.32079,-0.88252 -0.65565,0.80184 -0.1038,0.10022 -1.11717,0.594 -0.78435,-0.78435 0.594,-1.11717 0.10022,-0.1038 0.80184,-0.65565 -0.88252,-1.32079 -0.9126,0.4899 L -8.3188,4.44649 -9.57825,4.56776 -10.0027,3.54295 -9.02642,2.73813 -8.89411,2.68058 -7.9024,2.38169 -8.2123,0.82372 -9.2429,0.92709 -9.38716,0.92455 -10.5971,0.55462 v -1.10924 l 1.20994,-0.36993 0.14426,-0.00254 1.0306,0.10337 0.3099,-1.55797 -0.99171,-0.29889 -0.13231,-0.05755 -0.97628,-0.80482 0.42445,-1.02481 1.25945,0.12127 0.13425,0.05286 0.9126,0.4899 0.88252,-1.32079 -0.80184,-0.65565 -0.10022,-0.1038 -0.594,-1.11717 0.78435,-0.78435 1.11717,0.594 0.1038,0.10022 0.65565,0.80184 1.32079,-0.88252 -0.4899,-0.9126 -0.05286,-0.13425 -0.12127,-1.25945 1.02481,-0.42445 0.80482,0.97628 0.05755,0.13231 0.29889,0.99171 1.55797,-0.3099 -0.10337,-1.0306 0.00254,-0.14426 0.36993,-1.20994 h 1.10924 l 0.36993,1.20994 0.00254,0.14426 -0.10337,1.0306 1.55797,0.3099 0.29889,-0.99171 0.05755,-0.13231 0.80482,-0.97628 1.02481,0.42445 -0.12127,1.25945 -0.05286,0.13425 -0.4899,0.9126 1.32079,0.88252 0.65565,-0.80184 0.1038,-0.10022 1.11717,-0.594 0.78435,0.78435 -0.594,1.11717 -0.10022,0.1038 -0.80184,0.65565 0.88252,1.32079 0.9126,-0.4899 0.13425,-0.05286 1.25945,-0.12127 0.42445,1.02481 -0.97628,0.80482 -0.13231,0.05755 -0.99171,0.29889 z"
         id="path1635" />
      <circle
         style="fill:none;fill-opacity:1;stroke:#272727;stroke-width:0.264583;stroke-miterlimit:4;stroke-dasharray:none;stroke-opacity:1"
         id="path1637"
         cx="0"
         cy="0"
         r="1.3229166" />
    </g>
    <path
       style="fill:none;stroke:#000000;stroke-width:0.529167;stroke-linecap:round;stroke-linejoin:round;stroke-miterlimit:4;stroke-dasharray:none;stroke-opacity:1;stop-color:#000000"
       d="m 20.045327,64.70258 8.863284,-42.596881 c 0,0 0.33296,-1.48682 1.617143,-1.209684 1.495889,0.322823 1.2211,2.004328 1.2211,2.004328 l -8.757519,42.314889 c 0,0 0.04568,1.40454 -1.523382,1.203448 -1.700798,-0.217975 -1.420626,-1.7161 -1.420626,-1.7161 z"
       id="path1698"
       sodipodi:nodetypes="ccsccsc"
       inkscape:export-filename="/media/chrisb/crypto1/eth/near-karts/artwork/game/near-blockchain-transmission-1.png"
       inkscape:export-xdpi="96"
       inkscape:export-ydpi="96" />
    <text
       xml:space="preserve"
       transform="scale(0.26458333)"
       id="text8661"
       style="font-size:64px;line-height:1.25;font-family:sans-serif;letter-spacing:0px;word-spacing:0px;white-space:pre;shape-inside:url(#rect8663)" />
    <text
       xml:space="preserve"
       style="font-style:normal;font-variant:normal;font-weight:normal;font-stretch:normal;font-size:8.46667px;line-height:1.25;font-family:'Shuriken Boy Std';-inkscape-font-specification:'Shuriken Boy Std';letter-spacing:2.11667px;word-spacing:0px;stroke-width:0.264583"
       x="2.150321"
       y="-55.553123"
       id="text19441"
       transform="rotate(90)"
       inkscape:export-filename="/media/chrisb/crypto1/eth/near-karts/artwork/game/near-blockchain-transmission-1.png"
       inkscape:export-xdpi="96"
       inkscape:export-ydpi="96"><tspan
         sodipodi:role="line"
         id="tspan19439"
         style="font-style:normal;font-variant:normal;font-weight:normal;font-stretch:normal;font-size:8.46667px;font-family:'Shuriken Boy Std';-inkscape-font-specification:'Shuriken Boy Std';stroke-width:0.264583"
         x="2.150321"
         y="-55.553123">Blockchain</tspan></text>
    <text
       xml:space="preserve"
       transform="scale(0.26458333)"
       id="text26031"
       style="font-size:64px;line-height:1.25;font-family:sans-serif;letter-spacing:0px;word-spacing:0px;white-space:pre;shape-inside:url(#rect26033)" />
    <text
       xml:space="preserve"
       style="font-style:normal;font-variant:normal;font-weight:normal;font-stretch:normal;font-size:7.05556px;line-height:1.25;font-family:'Shuriken Boy Std';-inkscape-font-specification:'Shuriken Boy Std';letter-spacing:0px;word-spacing:0px;stroke-width:0.264583"
       x="6.7213368"
       y="82.701691"
       id="text35961"
       inkscape:export-filename="/media/chrisb/crypto1/eth/near-karts/artwork/game/near-blockchain-transmission-1.png"
       inkscape:export-xdpi="96"
       inkscape:export-ydpi="96"><tspan
         sodipodi:role="line"
         id="tspan35959"
         style="font-style:normal;font-variant:normal;font-weight:normal;font-stretch:normal;font-size:7.05556px;font-family:'Shuriken Boy Std';-inkscape-font-specification:'Shuriken Boy Std';stroke-width:0.264583"
         x="6.7213368"
         y="82.701691">Transmission</tspan></text>
    <g
       inkscape:label="Rendered Gears"
       transform="matrix(0.45049205,0,0,0.45049205,42.902656,37.904007)"
       id="g48575"
       style="fill:none;fill-opacity:1;stroke:#1a0087;stroke-width:0.132292;stroke-miterlimit:4;stroke-dasharray:none;stroke-opacity:1;filter:url(#filter46463)"
       inkscape:export-filename="/media/chrisb/crypto1/eth/near-karts/artwork/game/near-blockchain-transmission-1.png"
       inkscape:export-xdpi="96"
       inkscape:export-ydpi="96">
      <path
         style="fill:none;fill-opacity:1;stroke:#1a0087;stroke-width:0.132292;stroke-miterlimit:4;stroke-dasharray:none;stroke-opacity:1"
         d="m 8.2123,-0.82372 1.0306,-0.10337 0.14426,0.00254 1.20994,0.36993 V 0.55462 L 9.38716,0.92455 9.2429,0.92709 8.2123,0.82372 7.9024,2.38169 8.89411,2.68058 9.02642,2.73813 10.0027,3.54295 9.57825,4.56776 8.3188,4.44649 8.18455,4.39363 7.27195,3.90373 6.38943,5.22452 7.19127,5.88017 7.29149,5.98397 7.88549,7.10114 7.10114,7.88549 5.98397,7.29149 5.88017,7.19127 5.22452,6.38943 3.90373,7.27195 4.39363,8.18455 4.44649,8.3188 4.56776,9.57825 3.54295,10.0027 2.73813,9.02642 2.68058,8.89411 2.38169,7.9024 0.82372,8.2123 0.92709,9.2429 0.92455,9.38716 0.55462,10.5971 H -0.55462 L -0.92455,9.38716 -0.92709,9.2429 -0.82372,8.2123 -2.38169,7.9024 -2.68058,8.89411 -2.73813,9.02642 -3.54295,10.0027 -4.56776,9.57825 -4.44649,8.3188 l 0.05286,-0.13425 0.4899,-0.9126 -1.32079,-0.88252 -0.65565,0.80184 -0.1038,0.10022 -1.11717,0.594 -0.78435,-0.78435 0.594,-1.11717 0.10022,-0.1038 0.80184,-0.65565 -0.88252,-1.32079 -0.9126,0.4899 L -8.3188,4.44649 -9.57825,4.56776 -10.0027,3.54295 -9.02642,2.73813 -8.89411,2.68058 -7.9024,2.38169 -8.2123,0.82372 -9.2429,0.92709 -9.38716,0.92455 -10.5971,0.55462 v -1.10924 l 1.20994,-0.36993 0.14426,-0.00254 1.0306,0.10337 0.3099,-1.55797 -0.99171,-0.29889 -0.13231,-0.05755 -0.97628,-0.80482 0.42445,-1.02481 1.25945,0.12127 0.13425,0.05286 0.9126,0.4899 0.88252,-1.32079 -0.80184,-0.65565 -0.10022,-0.1038 -0.594,-1.11717 0.78435,-0.78435 1.11717,0.594 0.1038,0.10022 0.65565,0.80184 1.32079,-0.88252 -0.4899,-0.9126 -0.05286,-0.13425 -0.12127,-1.25945 1.02481,-0.42445 0.80482,0.97628 0.05755,0.13231 0.29889,0.99171 1.55797,-0.3099 -0.10337,-1.0306 0.00254,-0.14426 0.36993,-1.20994 h 1.10924 l 0.36993,1.20994 0.00254,0.14426 -0.10337,1.0306 1.55797,0.3099 0.29889,-0.99171 0.05755,-0.13231 0.80482,-0.97628 1.02481,0.42445 -0.12127,1.25945 -0.05286,0.13425 -0.4899,0.9126 1.32079,0.88252 0.65565,-0.80184 0.1038,-0.10022 1.11717,-0.594 0.78435,0.78435 -0.594,1.11717 -0.10022,0.1038 -0.80184,0.65565 0.88252,1.32079 0.9126,-0.4899 0.13425,-0.05286 1.25945,-0.12127 0.42445,1.02481 -0.97628,0.80482 -0.13231,0.05755 -0.99171,0.29889 z"
         id="path48571" />
      <circle
         style="fill:none;fill-opacity:1;stroke:#1a0087;stroke-width:0.132292;stroke-miterlimit:4;stroke-dasharray:none;stroke-opacity:1"
         id="circle48573"
         cx="0"
         cy="0"
         r="1.3229166" />
    </g>
    <g
       inkscape:label="Rendered Gears"
       transform="matrix(0.45049205,0,0,0.45049205,49.668098,43.542568)"
       id="g48581"
       style="fill:none;fill-opacity:1;stroke:#1a0087;stroke-width:0.132292;stroke-miterlimit:4;stroke-dasharray:none;stroke-opacity:1;filter:url(#filter46463)"
       inkscape:export-filename="/media/chrisb/crypto1/eth/near-karts/artwork/game/near-blockchain-transmission-1.png"
       inkscape:export-xdpi="96"
       inkscape:export-ydpi="96">
      <path
         style="fill:none;fill-opacity:1;stroke:#1a0087;stroke-width:0.132292;stroke-miterlimit:4;stroke-dasharray:none;stroke-opacity:1"
         d="m 8.2123,-0.82372 1.0306,-0.10337 0.14426,0.00254 1.20994,0.36993 V 0.55462 L 9.38716,0.92455 9.2429,0.92709 8.2123,0.82372 7.9024,2.38169 8.89411,2.68058 9.02642,2.73813 10.0027,3.54295 9.57825,4.56776 8.3188,4.44649 8.18455,4.39363 7.27195,3.90373 6.38943,5.22452 7.19127,5.88017 7.29149,5.98397 7.88549,7.10114 7.10114,7.88549 5.98397,7.29149 5.88017,7.19127 5.22452,6.38943 3.90373,7.27195 4.39363,8.18455 4.44649,8.3188 4.56776,9.57825 3.54295,10.0027 2.73813,9.02642 2.68058,8.89411 2.38169,7.9024 0.82372,8.2123 0.92709,9.2429 0.92455,9.38716 0.55462,10.5971 H -0.55462 L -0.92455,9.38716 -0.92709,9.2429 -0.82372,8.2123 -2.38169,7.9024 -2.68058,8.89411 -2.73813,9.02642 -3.54295,10.0027 -4.56776,9.57825 -4.44649,8.3188 l 0.05286,-0.13425 0.4899,-0.9126 -1.32079,-0.88252 -0.65565,0.80184 -0.1038,0.10022 -1.11717,0.594 -0.78435,-0.78435 0.594,-1.11717 0.10022,-0.1038 0.80184,-0.65565 -0.88252,-1.32079 -0.9126,0.4899 L -8.3188,4.44649 -9.57825,4.56776 -10.0027,3.54295 -9.02642,2.73813 -8.89411,2.68058 -7.9024,2.38169 -8.2123,0.82372 -9.2429,0.92709 -9.38716,0.92455 -10.5971,0.55462 v -1.10924 l 1.20994,-0.36993 0.14426,-0.00254 1.0306,0.10337 0.3099,-1.55797 -0.99171,-0.29889 -0.13231,-0.05755 -0.97628,-0.80482 0.42445,-1.02481 1.25945,0.12127 0.13425,0.05286 0.9126,0.4899 0.88252,-1.32079 -0.80184,-0.65565 -0.10022,-0.1038 -0.594,-1.11717 0.78435,-0.78435 1.11717,0.594 0.1038,0.10022 0.65565,0.80184 1.32079,-0.88252 -0.4899,-0.9126 -0.05286,-0.13425 -0.12127,-1.25945 1.02481,-0.42445 0.80482,0.97628 0.05755,0.13231 0.29889,0.99171 1.55797,-0.3099 -0.10337,-1.0306 0.00254,-0.14426 0.36993,-1.20994 h 1.10924 l 0.36993,1.20994 0.00254,0.14426 -0.10337,1.0306 1.55797,0.3099 0.29889,-0.99171 0.05755,-0.13231 0.80482,-0.97628 1.02481,0.42445 -0.12127,1.25945 -0.05286,0.13425 -0.4899,0.9126 1.32079,0.88252 0.65565,-0.80184 0.1038,-0.10022 1.11717,-0.594 0.78435,0.78435 -0.594,1.11717 -0.10022,0.1038 -0.80184,0.65565 0.88252,1.32079 0.9126,-0.4899 0.13425,-0.05286 1.25945,-0.12127 0.42445,1.02481 -0.97628,0.80482 -0.13231,0.05755 -0.99171,0.29889 z"
         id="path48577" />
      <circle
         style="fill:none;fill-opacity:1;stroke:#1a0087;stroke-width:0.132292;stroke-miterlimit:4;stroke-dasharray:none;stroke-opacity:1"
         id="circle48579"
         cx="0"
         cy="0"
         r="1.3229166" />
    </g>
    <g
       inkscape:label="Rendered Gears"
       transform="matrix(0.45049205,0,0,0.45049205,42.906319,49.096313)"
       id="g48587"
       style="fill:none;fill-opacity:1;stroke:#1a0087;stroke-width:0.132292;stroke-miterlimit:4;stroke-dasharray:none;stroke-opacity:1;filter:url(#filter46463)"
       inkscape:export-filename="/media/chrisb/crypto1/eth/near-karts/artwork/game/near-blockchain-transmission-1.png"
       inkscape:export-xdpi="96"
       inkscape:export-ydpi="96">
      <path
         style="fill:none;fill-opacity:1;stroke:#1a0087;stroke-width:0.132292;stroke-miterlimit:4;stroke-dasharray:none;stroke-opacity:1"
         d="m 8.2123,-0.82372 1.0306,-0.10337 0.14426,0.00254 1.20994,0.36993 V 0.55462 L 9.38716,0.92455 9.2429,0.92709 8.2123,0.82372 7.9024,2.38169 8.89411,2.68058 9.02642,2.73813 10.0027,3.54295 9.57825,4.56776 8.3188,4.44649 8.18455,4.39363 7.27195,3.90373 6.38943,5.22452 7.19127,5.88017 7.29149,5.98397 7.88549,7.10114 7.10114,7.88549 5.98397,7.29149 5.88017,7.19127 5.22452,6.38943 3.90373,7.27195 4.39363,8.18455 4.44649,8.3188 4.56776,9.57825 3.54295,10.0027 2.73813,9.02642 2.68058,8.89411 2.38169,7.9024 0.82372,8.2123 0.92709,9.2429 0.92455,9.38716 0.55462,10.5971 H -0.55462 L -0.92455,9.38716 -0.92709,9.2429 -0.82372,8.2123 -2.38169,7.9024 -2.68058,8.89411 -2.73813,9.02642 -3.54295,10.0027 -4.56776,9.57825 -4.44649,8.3188 l 0.05286,-0.13425 0.4899,-0.9126 -1.32079,-0.88252 -0.65565,0.80184 -0.1038,0.10022 -1.11717,0.594 -0.78435,-0.78435 0.594,-1.11717 0.10022,-0.1038 0.80184,-0.65565 -0.88252,-1.32079 -0.9126,0.4899 L -8.3188,4.44649 -9.57825,4.56776 -10.0027,3.54295 -9.02642,2.73813 -8.89411,2.68058 -7.9024,2.38169 -8.2123,0.82372 -9.2429,0.92709 -9.38716,0.92455 -10.5971,0.55462 v -1.10924 l 1.20994,-0.36993 0.14426,-0.00254 1.0306,0.10337 0.3099,-1.55797 -0.99171,-0.29889 -0.13231,-0.05755 -0.97628,-0.80482 0.42445,-1.02481 1.25945,0.12127 0.13425,0.05286 0.9126,0.4899 0.88252,-1.32079 -0.80184,-0.65565 -0.10022,-0.1038 -0.594,-1.11717 0.78435,-0.78435 1.11717,0.594 0.1038,0.10022 0.65565,0.80184 1.32079,-0.88252 -0.4899,-0.9126 -0.05286,-0.13425 -0.12127,-1.25945 1.02481,-0.42445 0.80482,0.97628 0.05755,0.13231 0.29889,0.99171 1.55797,-0.3099 -0.10337,-1.0306 0.00254,-0.14426 0.36993,-1.20994 h 1.10924 l 0.36993,1.20994 0.00254,0.14426 -0.10337,1.0306 1.55797,0.3099 0.29889,-0.99171 0.05755,-0.13231 0.80482,-0.97628 1.02481,0.42445 -0.12127,1.25945 -0.05286,0.13425 -0.4899,0.9126 1.32079,0.88252 0.65565,-0.80184 0.1038,-0.10022 1.11717,-0.594 0.78435,0.78435 -0.594,1.11717 -0.10022,0.1038 -0.80184,0.65565 0.88252,1.32079 0.9126,-0.4899 0.13425,-0.05286 1.25945,-0.12127 0.42445,1.02481 -0.97628,0.80482 -0.13231,0.05755 -0.99171,0.29889 z"
         id="path48583" />
      <circle
         style="fill:none;fill-opacity:1;stroke:#1a0087;stroke-width:0.132292;stroke-miterlimit:4;stroke-dasharray:none;stroke-opacity:1"
         id="circle48585"
         cx="0"
         cy="0"
         r="1.3229166" />
    </g>
    <g
       inkscape:label="Rendered Gears"
       transform="matrix(0.45049205,0,0,0.45049205,49.638508,54.652879)"
       id="g48593"
       style="fill:none;fill-opacity:1;stroke:#1a0087;stroke-width:0.132292;stroke-miterlimit:4;stroke-dasharray:none;stroke-opacity:1;filter:url(#filter46463)"
       inkscape:export-filename="/media/chrisb/crypto1/eth/near-karts/artwork/game/near-blockchain-transmission-1.png"
       inkscape:export-xdpi="96"
       inkscape:export-ydpi="96">
      <path
         style="fill:none;fill-opacity:1;stroke:#1a0087;stroke-width:0.132292;stroke-miterlimit:4;stroke-dasharray:none;stroke-opacity:1"
         d="m 8.2123,-0.82372 1.0306,-0.10337 0.14426,0.00254 1.20994,0.36993 V 0.55462 L 9.38716,0.92455 9.2429,0.92709 8.2123,0.82372 7.9024,2.38169 8.89411,2.68058 9.02642,2.73813 10.0027,3.54295 9.57825,4.56776 8.3188,4.44649 8.18455,4.39363 7.27195,3.90373 6.38943,5.22452 7.19127,5.88017 7.29149,5.98397 7.88549,7.10114 7.10114,7.88549 5.98397,7.29149 5.88017,7.19127 5.22452,6.38943 3.90373,7.27195 4.39363,8.18455 4.44649,8.3188 4.56776,9.57825 3.54295,10.0027 2.73813,9.02642 2.68058,8.89411 2.38169,7.9024 0.82372,8.2123 0.92709,9.2429 0.92455,9.38716 0.55462,10.5971 H -0.55462 L -0.92455,9.38716 -0.92709,9.2429 -0.82372,8.2123 -2.38169,7.9024 -2.68058,8.89411 -2.73813,9.02642 -3.54295,10.0027 -4.56776,9.57825 -4.44649,8.3188 l 0.05286,-0.13425 0.4899,-0.9126 -1.32079,-0.88252 -0.65565,0.80184 -0.1038,0.10022 -1.11717,0.594 -0.78435,-0.78435 0.594,-1.11717 0.10022,-0.1038 0.80184,-0.65565 -0.88252,-1.32079 -0.9126,0.4899 L -8.3188,4.44649 -9.57825,4.56776 -10.0027,3.54295 -9.02642,2.73813 -8.89411,2.68058 -7.9024,2.38169 -8.2123,0.82372 -9.2429,0.92709 -9.38716,0.92455 -10.5971,0.55462 v -1.10924 l 1.20994,-0.36993 0.14426,-0.00254 1.0306,0.10337 0.3099,-1.55797 -0.99171,-0.29889 -0.13231,-0.05755 -0.97628,-0.80482 0.42445,-1.02481 1.25945,0.12127 0.13425,0.05286 0.9126,0.4899 0.88252,-1.32079 -0.80184,-0.65565 -0.10022,-0.1038 -0.594,-1.11717 0.78435,-0.78435 1.11717,0.594 0.1038,0.10022 0.65565,0.80184 1.32079,-0.88252 -0.4899,-0.9126 -0.05286,-0.13425 -0.12127,-1.25945 1.02481,-0.42445 0.80482,0.97628 0.05755,0.13231 0.29889,0.99171 1.55797,-0.3099 -0.10337,-1.0306 0.00254,-0.14426 0.36993,-1.20994 h 1.10924 l 0.36993,1.20994 0.00254,0.14426 -0.10337,1.0306 1.55797,0.3099 0.29889,-0.99171 0.05755,-0.13231 0.80482,-0.97628 1.02481,0.42445 -0.12127,1.25945 -0.05286,0.13425 -0.4899,0.9126 1.32079,0.88252 0.65565,-0.80184 0.1038,-0.10022 1.11717,-0.594 0.78435,0.78435 -0.594,1.11717 -0.10022,0.1038 -0.80184,0.65565 0.88252,1.32079 0.9126,-0.4899 0.13425,-0.05286 1.25945,-0.12127 0.42445,1.02481 -0.97628,0.80482 -0.13231,0.05755 -0.99171,0.29889 z"
         id="path48589" />
      <circle
         style="fill:none;fill-opacity:1;stroke:#1a0087;stroke-width:0.132292;stroke-miterlimit:4;stroke-dasharray:none;stroke-opacity:1"
         id="circle48591"
         cx="0"
         cy="0"
         r="1.3229166" />
    </g>
    <g
       inkscape:label="Rendered Gears"
       transform="translate(21.590282,64.993712)"
       id="g48960"
       style="stroke:#1e1e1e;stroke-opacity:1"
       inkscape:export-filename="/media/chrisb/crypto1/eth/near-karts/artwork/game/near-blockchain-transmission-1.png"
       inkscape:export-xdpi="96"
       inkscape:export-ydpi="96">
      <path
         style="fill:none;stroke:#1e1e1e;stroke-width:0.264583;stroke-opacity:1"
         d="m 9.3952,-0.83896 1.0138,-0.09053 0.1623,0.00462 1.2058,0.35846 V 0.56641 L 10.5713,0.92487 10.409,0.92949 9.3952,0.83896 9.11554,2.42498 10.0992,2.68666 10.2501,2.7465 11.2606,3.49576 10.8732,4.56026 9.61743,4.48468 9.46338,4.43353 8.54166,4.00171 7.73641,5.39644 8.57124,5.97876 8.69256,6.0866 9.38587,7.13629 8.65772,8.00408 7.50357,7.50357 7.37631,7.40282 6.65787,6.6818 5.42416,7.717 6.00948,8.54973 6.0866,8.69256 6.37908,9.91608 5.39804,10.4825 4.48468,9.61743 4.39955,9.47922 3.97104,8.55596 2.45767,9.10678 2.72288,10.0895 2.7465,10.2501 2.60288,11.4998 1.48727,11.6966 0.92487,10.5713 0.89214,10.4123 0.80524,9.39815 h -1.61048 l -0.0869,1.01415 -0.03273,0.159 -0.5624,1.1253 L -2.60288,11.4998 -2.7465,10.2501 -2.72288,10.0895 -2.45767,9.10678 -3.97104,8.55596 -4.39955,9.47922 -4.48468,9.61743 -5.39804,10.4825 -6.37908,9.91608 -6.0866,8.69256 -6.00948,8.54973 -5.42416,7.717 -6.65787,6.6818 -7.37631,7.40282 -7.50357,7.50357 -8.65772,8.00408 -9.38587,7.13629 -8.69256,6.0866 -8.57124,5.97876 -7.73641,5.39644 -8.54166,4.00171 -9.46338,4.43353 -9.61743,4.48468 -10.8732,4.56026 -11.2606,3.49576 -10.2501,2.7465 -10.0992,2.68666 -9.11554,2.42498 -9.3952,0.83896 -10.409,0.92949 -10.5713,0.92487 -11.7771,0.56641 v -1.13282 l 1.2058,-0.35846 0.1623,-0.00462 1.0138,0.09053 0.27966,-1.58602 -0.98366,-0.26168 -0.1509,-0.05984 -1.0105,-0.74926 0.3874,-1.0645 1.25577,0.07558 0.15405,0.05115 0.92172,0.43182 0.80525,-1.39473 -0.83483,-0.58232 -0.12132,-0.10784 -0.69331,-1.04969 0.72815,-0.86779 1.15415,0.50051 0.12726,0.10075 0.71844,0.72102 1.23371,-1.0352 -0.58532,-0.83273 -0.07712,-0.14283 -0.29248,-1.22352 0.98104,-0.56642 0.91336,0.86507 0.08513,0.13821 0.42851,0.92326 1.51337,-0.55082 -0.26521,-0.98272 -0.02362,-0.1606 0.14362,-1.2497 1.11561,-0.1968 0.5624,1.1253 0.03273,0.159 0.0869,1.01415 h 1.61048 l 0.0869,-1.01415 0.03273,-0.159 0.5624,-1.1253 1.11561,0.1968 0.14362,1.2497 -0.02362,0.1606 -0.26521,0.98272 1.51337,0.55082 0.42851,-0.92326 0.08513,-0.13821 0.91336,-0.86507 0.98104,0.56642 -0.29248,1.22352 -0.07712,0.14283 -0.58532,0.83273 1.23371,1.0352 0.71844,-0.72102 0.12726,-0.10075 1.15415,-0.50051 0.72815,0.86779 -0.69331,1.04969 -0.12132,0.10784 -0.83483,0.58232 0.80525,1.39473 0.92172,-0.43182 0.15405,-0.05115 1.25577,-0.07558 0.3874,1.0645 -1.0105,0.74926 -0.1509,0.05984 -0.98366,0.26168 z"
         id="path48956" />
      <circle
         style="fill:none;stroke:#1e1e1e;stroke-width:0.264583;stroke-opacity:1"
         id="path48958"
         cx="0"
         cy="0"
         r="1.3229166" />
    </g>
    <g
       inkscape:label="Rendered Gears"
       transform="translate(19.720664,43.633133)"
       id="g49111"
       style="stroke:#d8d8d8;stroke-opacity:1"
       inkscape:export-filename="/media/chrisb/crypto1/eth/near-karts/artwork/game/near-blockchain-transmission-1.png"
       inkscape:export-xdpi="96"
       inkscape:export-ydpi="96">
      <path
         style="fill:none;stroke:#d8d8d8;stroke-width:0.264583;stroke-opacity:1"
         d="m 9.3952,-0.83896 1.0138,-0.09053 0.1623,0.00462 1.2058,0.35846 V 0.56641 L 10.5713,0.92487 10.409,0.92949 9.3952,0.83896 9.11554,2.42498 10.0992,2.68666 10.2501,2.7465 11.2606,3.49576 10.8732,4.56026 9.61743,4.48468 9.46338,4.43353 8.54166,4.00171 7.73641,5.39644 8.57124,5.97876 8.69256,6.0866 9.38587,7.13629 8.65772,8.00408 7.50357,7.50357 7.37631,7.40282 6.65787,6.6818 5.42416,7.717 6.00948,8.54973 6.0866,8.69256 6.37908,9.91608 5.39804,10.4825 4.48468,9.61743 4.39955,9.47922 3.97104,8.55596 2.45767,9.10678 2.72288,10.0895 2.7465,10.2501 2.60288,11.4998 1.48727,11.6966 0.92487,10.5713 0.89214,10.4123 0.80524,9.39815 h -1.61048 l -0.0869,1.01415 -0.03273,0.159 -0.5624,1.1253 L -2.60288,11.4998 -2.7465,10.2501 -2.72288,10.0895 -2.45767,9.10678 -3.97104,8.55596 -4.39955,9.47922 -4.48468,9.61743 -5.39804,10.4825 -6.37908,9.91608 -6.0866,8.69256 -6.00948,8.54973 -5.42416,7.717 -6.65787,6.6818 -7.37631,7.40282 -7.50357,7.50357 -8.65772,8.00408 -9.38587,7.13629 -8.69256,6.0866 -8.57124,5.97876 -7.73641,5.39644 -8.54166,4.00171 -9.46338,4.43353 -9.61743,4.48468 -10.8732,4.56026 -11.2606,3.49576 -10.2501,2.7465 -10.0992,2.68666 -9.11554,2.42498 -9.3952,0.83896 -10.409,0.92949 -10.5713,0.92487 -11.7771,0.56641 v -1.13282 l 1.2058,-0.35846 0.1623,-0.00462 1.0138,0.09053 0.27966,-1.58602 -0.98366,-0.26168 -0.1509,-0.05984 -1.0105,-0.74926 0.3874,-1.0645 1.25577,0.07558 0.15405,0.05115 0.92172,0.43182 0.80525,-1.39473 -0.83483,-0.58232 -0.12132,-0.10784 -0.69331,-1.04969 0.72815,-0.86779 1.15415,0.50051 0.12726,0.10075 0.71844,0.72102 1.23371,-1.0352 -0.58532,-0.83273 -0.07712,-0.14283 -0.29248,-1.22352 0.98104,-0.56642 0.91336,0.86507 0.08513,0.13821 0.42851,0.92326 1.51337,-0.55082 -0.26521,-0.98272 -0.02362,-0.1606 0.14362,-1.2497 1.11561,-0.1968 0.5624,1.1253 0.03273,0.159 0.0869,1.01415 h 1.61048 l 0.0869,-1.01415 0.03273,-0.159 0.5624,-1.1253 1.11561,0.1968 0.14362,1.2497 -0.02362,0.1606 -0.26521,0.98272 1.51337,0.55082 0.42851,-0.92326 0.08513,-0.13821 0.91336,-0.86507 0.98104,0.56642 -0.29248,1.22352 -0.07712,0.14283 -0.58532,0.83273 1.23371,1.0352 0.71844,-0.72102 0.12726,-0.10075 1.15415,-0.50051 0.72815,0.86779 -0.69331,1.04969 -0.12132,0.10784 -0.83483,0.58232 0.80525,1.39473 0.92172,-0.43182 0.15405,-0.05115 1.25577,-0.07558 0.3874,1.0645 -1.0105,0.74926 -0.1509,0.05984 -0.98366,0.26168 z"
         id="path49107" />
      <circle
         style="fill:none;stroke:#d8d8d8;stroke-width:0.264583;stroke-opacity:1"
         id="path49109"
         cx="0"
         cy="0"
         r="1.3229166" />
    </g>
  </g>
</svg>
