<?xml version="1.0" encoding="UTF-8" standalone="no"?>
<!-- Created with Inkscape (http://www.inkscape.org/) -->

<svg
   width="400"
   height="400"
   viewBox="0 0 105.83333 105.83333"
   version="1.1"
   id="svg5"
   inkscape:version="1.1.1 (3bf5ae0, 2021-09-20)"
   sodipodi:docname="arrows-2.svg"
   inkscape:export-filename="/media/chrisb/crypto1/eth/near-karts/artwork/images/misc/arrows-2.png"
   inkscape:export-xdpi="96"
   inkscape:export-ydpi="96"
   xmlns:inkscape="http://www.inkscape.org/namespaces/inkscape"
   xmlns:sodipodi="http://sodipodi.sourceforge.net/DTD/sodipodi-0.dtd"
   xmlns="http://www.w3.org/2000/svg"
   xmlns:svg="http://www.w3.org/2000/svg"
   xmlns:rdf="http://www.w3.org/1999/02/22-rdf-syntax-ns#"
   xmlns:cc="http://creativecommons.org/ns#"
   xmlns:dc="http://purl.org/dc/elements/1.1/">
  <metadata
     id="metadata7">
    <rdf:RDF>
      <cc:Work
         rdf:about="">
        <dc:format>image/svg+xml</dc:format>
        <dc:type
           rdf:resource="http://purl.org/dc/dcmitype/StillImage" />
      </cc:Work>
    </rdf:RDF>
  </metadata>
  <sodipodi:namedview
     id="namedview7"
     pagecolor="#ffffff"
     bordercolor="#666666"
     borderopacity="1.0"
     inkscape:pageshadow="2"
     inkscape:pageopacity="0.0"
     inkscape:pagecheckerboard="0"
     inkscape:document-units="px"
     showgrid="true"
     units="px"
     inkscape:zoom="1.1095618"
     inkscape:cx="155.91741"
     inkscape:cy="200.07899"
     inkscape:window-width="1366"
     inkscape:window-height="713"
     inkscape:window-x="0"
     inkscape:window-y="0"
     inkscape:window-maximized="1"
     inkscape:current-layer="layer1"
     width="400px">
    <inkscape:grid
       type="xygrid"
       id="grid824"
       spacingx="1.3229166"
       spacingy="1.3229166"
       empspacing="4" />
  </sodipodi:namedview>
  <defs
     id="defs2" />
  <g
     inkscape:label="Layer 1"
     inkscape:groupmode="layer"
     id="layer1"
     transform="translate(0,0.52916666)">
    <path
       style="fill:#e50011;fill-opacity:1;stroke:none;stroke-width:0.529167;stroke-linecap:round;stroke-linejoin:round;stroke-miterlimit:4;stroke-dasharray:none;stroke-opacity:1;stop-color:#000000"
       d="M 2.6458332,2.1166666 3.96875,0.79374996 9.2604163,4.7624999 3.96875,8.7312496 2.6458332,7.408333 6.6145832,4.7624999 Z"
       id="path4250" />
    <path
       style="fill:#390105;fill-opacity:1;stroke:none;stroke-width:0.529167;stroke-linecap:round;stroke-linejoin:round;stroke-miterlimit:4;stroke-dasharray:none;stroke-opacity:1;stop-color:#000000"
       d="M 13.229166,2.1166666 14.552083,0.79374996 19.843749,4.7624999 14.552083,8.7312496 13.229166,7.408333 17.197916,4.7624999 Z"
       id="path4350" />
    <path
       style="fill:#390105;fill-opacity:1;stroke:none;stroke-width:0.529167;stroke-linecap:round;stroke-linejoin:round;stroke-miterlimit:4;stroke-dasharray:none;stroke-opacity:1;stop-color:#000000"
       d="M 23.812498,2.1166666 25.135415,0.79374996 30.427081,4.7624999 25.135415,8.7312496 23.812498,7.408333 27.781248,4.7624999 Z"
       id="path4352" />
    <path
       style="fill:#390105;fill-opacity:1;stroke:none;stroke-width:0.529167;stroke-linecap:round;stroke-linejoin:round;stroke-miterlimit:4;stroke-dasharray:none;stroke-opacity:1;stop-color:#000000"
       d="M 34.39583,2.1166666 35.718747,0.79374996 41.010413,4.7624999 35.718747,8.7312496 34.39583,7.408333 38.36458,4.7624999 Z"
       id="path4354" />
    <path
       style="fill:#390105;fill-opacity:1;stroke:none;stroke-width:0.529167;stroke-linecap:round;stroke-linejoin:round;stroke-miterlimit:4;stroke-dasharray:none;stroke-opacity:1;stop-color:#000000"
       d="M 44.979162,2.1166666 46.302079,0.79374996 51.593745,4.7624999 46.302079,8.7312496 44.979162,7.408333 48.947912,4.7624999 Z"
       id="path4356" />
    <path
       style="fill:#390105;fill-opacity:1;stroke:none;stroke-width:0.529167;stroke-linecap:round;stroke-linejoin:round;stroke-miterlimit:4;stroke-dasharray:none;stroke-opacity:1;stop-color:#000000"
       d="M 55.562494,2.1166666 56.885411,0.79374996 62.177077,4.7624999 56.885411,8.7312496 55.562494,7.408333 59.531244,4.7624999 Z"
       id="path4358" />
    <path
       style="fill:#390105;fill-opacity:1;stroke:none;stroke-width:0.529167;stroke-linecap:round;stroke-linejoin:round;stroke-miterlimit:4;stroke-dasharray:none;stroke-opacity:1;stop-color:#000000"
       d="M 66.145826,2.1166666 67.468743,0.79374996 72.760409,4.7624999 67.468743,8.7312496 66.145826,7.408333 70.114576,4.7624999 Z"
       id="path4360" />
    <path
       style="fill:#390105;fill-opacity:1;stroke:none;stroke-width:0.529167;stroke-linecap:round;stroke-linejoin:round;stroke-miterlimit:4;stroke-dasharray:none;stroke-opacity:1;stop-color:#000000"
       d="M 76.729158,2.1166666 78.052075,0.79374996 83.343741,4.7624999 78.052075,8.7312496 76.729158,7.408333 80.697908,4.7624999 Z"
       id="path4362" />
    <path
       style="fill:#390105;fill-opacity:1;stroke:none;stroke-width:0.529167;stroke-linecap:round;stroke-linejoin:round;stroke-miterlimit:4;stroke-dasharray:none;stroke-opacity:1;stop-color:#000000"
       d="M 87.31249,2.1166666 88.635407,0.79374996 93.927073,4.7624999 88.635407,8.7312496 87.31249,7.408333 91.28124,4.7624999 Z"
       id="path4364" />
    <path
       style="fill:#390105;fill-opacity:1;stroke:none;stroke-width:0.529167;stroke-linecap:round;stroke-linejoin:round;stroke-miterlimit:4;stroke-dasharray:none;stroke-opacity:1;stop-color:#000000"
       d="M 97.895822,2.1166666 99.218739,0.79374996 104.51041,4.7624999 99.218739,8.7312496 97.895822,7.408333 101.86457,4.7624999 Z"
       id="path4366" />
    <path
       style="fill:#e50011;fill-opacity:1;stroke:none;stroke-width:0.529167;stroke-linecap:round;stroke-linejoin:round;stroke-miterlimit:4;stroke-dasharray:none;stroke-opacity:1;stop-color:#000000"
       d="M 2.6458332,12.7 3.96875,11.377083 9.2604163,15.345833 3.96875,19.314582 2.6458332,17.991666 l 3.96875,-2.645834 z"
       id="path4368" />
    <path
       style="fill:#e50011;fill-opacity:1;stroke:none;stroke-width:0.529167;stroke-linecap:round;stroke-linejoin:round;stroke-miterlimit:4;stroke-dasharray:none;stroke-opacity:1;stop-color:#000000"
       d="m 13.229166,12.7 1.322917,-1.322917 5.291666,3.96875 -5.291666,3.968749 -1.322917,-1.322916 3.96875,-2.645834 z"
       id="path4370" />
    <path
       style="fill:#390105;fill-opacity:1;stroke:none;stroke-width:0.529167;stroke-linecap:round;stroke-linejoin:round;stroke-miterlimit:4;stroke-dasharray:none;stroke-opacity:1;stop-color:#000000"
       d="m 23.812498,12.7 1.322917,-1.322917 5.291666,3.96875 -5.291666,3.968749 -1.322917,-1.322916 3.96875,-2.645834 z"
       id="path4372" />
    <path
       style="fill:#390105;fill-opacity:1;stroke:none;stroke-width:0.529167;stroke-linecap:round;stroke-linejoin:round;stroke-miterlimit:4;stroke-dasharray:none;stroke-opacity:1;stop-color:#000000"
       d="m 34.39583,12.7 1.322917,-1.322917 5.291666,3.96875 -5.291666,3.968749 -1.322917,-1.322916 3.96875,-2.645833 z"
       id="path4374" />
    <path
       style="fill:#390105;fill-opacity:1;stroke:none;stroke-width:0.529167;stroke-linecap:round;stroke-linejoin:round;stroke-miterlimit:4;stroke-dasharray:none;stroke-opacity:1;stop-color:#000000"
       d="m 44.979162,12.7 1.322917,-1.322917 5.291666,3.96875 -5.291666,3.968749 -1.322917,-1.322916 3.96875,-2.645834 z"
       id="path4376" />
    <path
       style="fill:#390105;fill-opacity:1;stroke:none;stroke-width:0.529167;stroke-linecap:round;stroke-linejoin:round;stroke-miterlimit:4;stroke-dasharray:none;stroke-opacity:1;stop-color:#000000"
       d="m 55.562494,12.7 1.322917,-1.322917 5.291666,3.96875 -5.291666,3.968749 -1.322917,-1.322916 3.96875,-2.645834 z"
       id="path4378" />
    <path
       style="fill:#390105;fill-opacity:1;stroke:none;stroke-width:0.529167;stroke-linecap:round;stroke-linejoin:round;stroke-miterlimit:4;stroke-dasharray:none;stroke-opacity:1;stop-color:#000000"
       d="m 66.145826,12.7 1.322917,-1.322917 5.291666,3.96875 -5.291666,3.968749 -1.322917,-1.322916 3.96875,-2.645834 z"
       id="path4380" />
    <path
       style="fill:#390105;fill-opacity:1;stroke:none;stroke-width:0.529167;stroke-linecap:round;stroke-linejoin:round;stroke-miterlimit:4;stroke-dasharray:none;stroke-opacity:1;stop-color:#000000"
       d="m 76.729158,12.7 1.322917,-1.322917 5.291666,3.96875 -5.291666,3.968749 -1.322917,-1.322916 3.96875,-2.645834 z"
       id="path4382" />
    <path
       style="fill:#390105;fill-opacity:1;stroke:none;stroke-width:0.529167;stroke-linecap:round;stroke-linejoin:round;stroke-miterlimit:4;stroke-dasharray:none;stroke-opacity:1;stop-color:#000000"
       d="m 87.31249,12.7 1.322917,-1.322917 5.291666,3.96875 -5.291666,3.968749 -1.322917,-1.322916 3.96875,-2.645833 z"
       id="path4384" />
    <path
       style="fill:#390105;fill-opacity:1;stroke:none;stroke-width:0.529167;stroke-linecap:round;stroke-linejoin:round;stroke-miterlimit:4;stroke-dasharray:none;stroke-opacity:1;stop-color:#000000"
       d="m 97.895822,12.7 1.322917,-1.322917 5.291671,3.96875 -5.291671,3.968749 -1.322917,-1.322916 3.968748,-2.645833 z"
       id="path4386" />
    <path
       style="fill:#e50011;fill-opacity:1;stroke:none;stroke-width:0.529167;stroke-linecap:round;stroke-linejoin:round;stroke-miterlimit:4;stroke-dasharray:none;stroke-opacity:1;stop-color:#000000"
       d="M 2.6458332,23.283332 3.96875,21.960415 9.2604163,25.929165 3.96875,29.897914 2.6458332,28.574998 l 3.96875,-2.645834 z"
       id="path4388" />
    <path
       style="fill:#e50011;fill-opacity:1;stroke:none;stroke-width:0.529167;stroke-linecap:round;stroke-linejoin:round;stroke-miterlimit:4;stroke-dasharray:none;stroke-opacity:1;stop-color:#000000"
       d="m 13.229166,23.283332 1.322917,-1.322917 5.291666,3.96875 -5.291666,3.968749 -1.322917,-1.322916 3.96875,-2.645834 z"
       id="path4390" />
    <path
       style="fill:#e50011;fill-opacity:1;stroke:none;stroke-width:0.529167;stroke-linecap:round;stroke-linejoin:round;stroke-miterlimit:4;stroke-dasharray:none;stroke-opacity:1;stop-color:#000000"
       d="m 23.812498,23.283332 1.322917,-1.322917 5.291666,3.96875 -5.291666,3.968749 -1.322917,-1.322916 3.96875,-2.645834 z"
       id="path4392" />
    <path
       style="fill:#390105;fill-opacity:1;stroke:none;stroke-width:0.529167;stroke-linecap:round;stroke-linejoin:round;stroke-miterlimit:4;stroke-dasharray:none;stroke-opacity:1;stop-color:#000000"
       d="m 34.39583,23.283332 1.322917,-1.322917 5.291666,3.96875 -5.291666,3.968749 -1.322917,-1.322916 3.96875,-2.645833 z"
       id="path4394" />
    <path
       style="fill:#390105;fill-opacity:1;stroke:none;stroke-width:0.529167;stroke-linecap:round;stroke-linejoin:round;stroke-miterlimit:4;stroke-dasharray:none;stroke-opacity:1;stop-color:#000000"
       d="m 44.979162,23.283332 1.322917,-1.322917 5.291666,3.96875 -5.291666,3.968749 -1.322917,-1.322916 3.96875,-2.645834 z"
       id="path4396" />
    <path
       style="fill:#390105;fill-opacity:1;stroke:none;stroke-width:0.529167;stroke-linecap:round;stroke-linejoin:round;stroke-miterlimit:4;stroke-dasharray:none;stroke-opacity:1;stop-color:#000000"
       d="m 55.562494,23.283332 1.322917,-1.322917 5.291666,3.96875 -5.291666,3.968749 -1.322917,-1.322916 3.96875,-2.645834 z"
       id="path4398" />
    <path
       style="fill:#390105;fill-opacity:1;stroke:none;stroke-width:0.529167;stroke-linecap:round;stroke-linejoin:round;stroke-miterlimit:4;stroke-dasharray:none;stroke-opacity:1;stop-color:#000000"
       d="m 66.145826,23.283332 1.322917,-1.322917 5.291666,3.96875 -5.291666,3.968749 -1.322917,-1.322916 3.96875,-2.645834 z"
       id="path4400" />
    <path
       style="fill:#390105;fill-opacity:1;stroke:none;stroke-width:0.529167;stroke-linecap:round;stroke-linejoin:round;stroke-miterlimit:4;stroke-dasharray:none;stroke-opacity:1;stop-color:#000000"
       d="m 76.729158,23.283332 1.322917,-1.322917 5.291666,3.96875 -5.291666,3.968749 -1.322917,-1.322916 3.96875,-2.645834 z"
       id="path4402" />
    <path
       style="fill:#390105;fill-opacity:1;stroke:none;stroke-width:0.529167;stroke-linecap:round;stroke-linejoin:round;stroke-miterlimit:4;stroke-dasharray:none;stroke-opacity:1;stop-color:#000000"
       d="m 87.31249,23.283332 1.322917,-1.322917 5.291666,3.96875 -5.291666,3.968749 -1.322917,-1.322916 3.96875,-2.645833 z"
       id="path4404" />
    <path
       style="fill:#390105;fill-opacity:1;stroke:none;stroke-width:0.529167;stroke-linecap:round;stroke-linejoin:round;stroke-miterlimit:4;stroke-dasharray:none;stroke-opacity:1;stop-color:#000000"
       d="m 97.895822,23.283332 1.322917,-1.322917 5.291671,3.96875 -5.291671,3.968749 -1.322917,-1.322916 3.968748,-2.645833 z"
       id="path4406" />
    <path
       style="fill:#e50011;fill-opacity:1;stroke:none;stroke-width:0.529167;stroke-linecap:round;stroke-linejoin:round;stroke-miterlimit:4;stroke-dasharray:none;stroke-opacity:1;stop-color:#000000"
       d="M 2.6458332,33.866664 3.96875,32.543747 9.2604163,36.512497 3.96875,40.481246 2.6458332,39.15833 l 3.96875,-2.645834 z"
       id="path4408" />
    <path
       style="fill:#e50011;fill-opacity:1;stroke:none;stroke-width:0.529167;stroke-linecap:round;stroke-linejoin:round;stroke-miterlimit:4;stroke-dasharray:none;stroke-opacity:1;stop-color:#000000"
       d="m 13.229166,33.866664 1.322917,-1.322917 5.291666,3.96875 -5.291666,3.968749 -1.322917,-1.322916 3.96875,-2.645834 z"
       id="path4410" />
    <path
       style="fill:#e50011;fill-opacity:1;stroke:none;stroke-width:0.529167;stroke-linecap:round;stroke-linejoin:round;stroke-miterlimit:4;stroke-dasharray:none;stroke-opacity:1;stop-color:#000000"
       d="m 23.812498,33.866664 1.322917,-1.322917 5.291666,3.96875 -5.291666,3.968749 -1.322917,-1.322916 3.96875,-2.645834 z"
       id="path4412" />
    <path
       style="fill:#e50011;fill-opacity:1;stroke:none;stroke-width:0.529167;stroke-linecap:round;stroke-linejoin:round;stroke-miterlimit:4;stroke-dasharray:none;stroke-opacity:1;stop-color:#000000"
       d="m 34.39583,33.866664 1.322917,-1.322917 5.291666,3.96875 -5.291666,3.968749 -1.322917,-1.322916 3.96875,-2.645833 z"
       id="path4414" />
    <path
       style="fill:#390105;fill-opacity:1;stroke:none;stroke-width:0.529167;stroke-linecap:round;stroke-linejoin:round;stroke-miterlimit:4;stroke-dasharray:none;stroke-opacity:1;stop-color:#000000"
       d="m 44.979162,33.866664 1.322917,-1.322917 5.291666,3.96875 -5.291666,3.968749 -1.322917,-1.322916 3.96875,-2.645834 z"
       id="path4416" />
    <path
       style="fill:#390105;fill-opacity:1;stroke:none;stroke-width:0.529167;stroke-linecap:round;stroke-linejoin:round;stroke-miterlimit:4;stroke-dasharray:none;stroke-opacity:1;stop-color:#000000"
       d="m 55.562494,33.866664 1.322917,-1.322917 5.291666,3.96875 -5.291666,3.968749 -1.322917,-1.322916 3.96875,-2.645834 z"
       id="path4418" />
    <path
       style="fill:#390105;fill-opacity:1;stroke:none;stroke-width:0.529167;stroke-linecap:round;stroke-linejoin:round;stroke-miterlimit:4;stroke-dasharray:none;stroke-opacity:1;stop-color:#000000"
       d="m 66.145826,33.866664 1.322917,-1.322917 5.291666,3.96875 -5.291666,3.968749 -1.322917,-1.322916 3.96875,-2.645834 z"
       id="path4420" />
    <path
       style="fill:#390105;fill-opacity:1;stroke:none;stroke-width:0.529167;stroke-linecap:round;stroke-linejoin:round;stroke-miterlimit:4;stroke-dasharray:none;stroke-opacity:1;stop-color:#000000"
       d="m 76.729158,33.866664 1.322917,-1.322917 5.291666,3.96875 -5.291666,3.968749 -1.322917,-1.322916 3.96875,-2.645834 z"
       id="path4422" />
    <path
       style="fill:#390105;fill-opacity:1;stroke:none;stroke-width:0.529167;stroke-linecap:round;stroke-linejoin:round;stroke-miterlimit:4;stroke-dasharray:none;stroke-opacity:1;stop-color:#000000"
       d="m 87.31249,33.866664 1.322917,-1.322917 5.291666,3.96875 -5.291666,3.968749 -1.322917,-1.322916 3.96875,-2.645833 z"
       id="path4424" />
    <path
       style="fill:#390105;fill-opacity:1;stroke:none;stroke-width:0.529167;stroke-linecap:round;stroke-linejoin:round;stroke-miterlimit:4;stroke-dasharray:none;stroke-opacity:1;stop-color:#000000"
       d="m 97.895822,33.866664 1.322917,-1.322917 5.291671,3.96875 -5.291671,3.968749 -1.322917,-1.322916 3.968748,-2.645833 z"
       id="path4426" />
    <path
       style="fill:#e50011;fill-opacity:1;stroke:none;stroke-width:0.529167;stroke-linecap:round;stroke-linejoin:round;stroke-miterlimit:4;stroke-dasharray:none;stroke-opacity:1;stop-color:#000000"
       d="M 2.6458332,44.449996 3.96875,43.127079 9.2604163,47.095829 3.96875,51.064578 2.6458332,49.741662 l 3.96875,-2.645834 z"
       id="path4428" />
    <path
       style="fill:#e50011;fill-opacity:1;stroke:none;stroke-width:0.529167;stroke-linecap:round;stroke-linejoin:round;stroke-miterlimit:4;stroke-dasharray:none;stroke-opacity:1;stop-color:#000000"
       d="m 13.229166,44.449996 1.322917,-1.322917 5.291666,3.96875 -5.291666,3.968749 -1.322917,-1.322916 3.96875,-2.645834 z"
       id="path4430" />
    <path
       style="fill:#e50011;fill-opacity:1;stroke:none;stroke-width:0.529167;stroke-linecap:round;stroke-linejoin:round;stroke-miterlimit:4;stroke-dasharray:none;stroke-opacity:1;stop-color:#000000"
       d="m 23.812498,44.449996 1.322917,-1.322917 5.291666,3.96875 -5.291666,3.968749 -1.322917,-1.322916 3.96875,-2.645834 z"
       id="path4432" />
    <path
       style="fill:#e50011;fill-opacity:1;stroke:none;stroke-width:0.529167;stroke-linecap:round;stroke-linejoin:round;stroke-miterlimit:4;stroke-dasharray:none;stroke-opacity:1;stop-color:#000000"
       d="m 34.39583,44.449996 1.322917,-1.322917 5.291666,3.96875 -5.291666,3.968749 -1.322917,-1.322916 3.96875,-2.645833 z"
       id="path4434" />
    <path
       style="fill:#e50011;fill-opacity:1;stroke:none;stroke-width:0.529167;stroke-linecap:round;stroke-linejoin:round;stroke-miterlimit:4;stroke-dasharray:none;stroke-opacity:1;stop-color:#000000"
       d="m 44.979162,44.449996 1.322917,-1.322917 5.291666,3.96875 -5.291666,3.968749 -1.322917,-1.322916 3.96875,-2.645834 z"
       id="path4436" />
    <path
       style="fill:#390105;fill-opacity:1;stroke:none;stroke-width:0.529167;stroke-linecap:round;stroke-linejoin:round;stroke-miterlimit:4;stroke-dasharray:none;stroke-opacity:1;stop-color:#000000"
       d="m 55.562494,44.449996 1.322917,-1.322917 5.291666,3.96875 -5.291666,3.968749 -1.322917,-1.322916 3.96875,-2.645834 z"
       id="path4438" />
    <path
       style="fill:#390105;fill-opacity:1;stroke:none;stroke-width:0.529167;stroke-linecap:round;stroke-linejoin:round;stroke-miterlimit:4;stroke-dasharray:none;stroke-opacity:1;stop-color:#000000"
       d="m 66.145826,44.449996 1.322917,-1.322917 5.291666,3.96875 -5.291666,3.968749 -1.322917,-1.322916 3.96875,-2.645834 z"
       id="path4440" />
    <path
       style="fill:#390105;fill-opacity:1;stroke:none;stroke-width:0.529167;stroke-linecap:round;stroke-linejoin:round;stroke-miterlimit:4;stroke-dasharray:none;stroke-opacity:1;stop-color:#000000"
       d="m 76.729158,44.449996 1.322917,-1.322917 5.291666,3.96875 -5.291666,3.968749 -1.322917,-1.322916 3.96875,-2.645834 z"
       id="path4442" />
    <path
       style="fill:#390105;fill-opacity:1;stroke:none;stroke-width:0.529167;stroke-linecap:round;stroke-linejoin:round;stroke-miterlimit:4;stroke-dasharray:none;stroke-opacity:1;stop-color:#000000"
       d="m 87.31249,44.449996 1.322917,-1.322917 5.291666,3.96875 -5.291666,3.968749 -1.322917,-1.322916 3.96875,-2.645833 z"
       id="path4444" />
    <path
       style="fill:#390105;fill-opacity:1;stroke:none;stroke-width:0.529167;stroke-linecap:round;stroke-linejoin:round;stroke-miterlimit:4;stroke-dasharray:none;stroke-opacity:1;stop-color:#000000"
       d="m 97.895822,44.449996 1.322917,-1.322917 5.291671,3.96875 -5.291671,3.968749 -1.322917,-1.322916 3.968748,-2.645833 z"
       id="path4446" />
    <path
       style="fill:#e50011;fill-opacity:1;stroke:none;stroke-width:0.529167;stroke-linecap:round;stroke-linejoin:round;stroke-miterlimit:4;stroke-dasharray:none;stroke-opacity:1;stop-color:#000000"
       d="M 2.6458332,55.033328 3.96875,53.710411 9.2604163,57.679161 3.96875,61.64791 2.6458332,60.324994 6.6145832,57.67916 Z"
       id="path4448" />
    <path
       style="fill:#e50011;fill-opacity:1;stroke:none;stroke-width:0.529167;stroke-linecap:round;stroke-linejoin:round;stroke-miterlimit:4;stroke-dasharray:none;stroke-opacity:1;stop-color:#000000"
       d="m 13.229166,55.033328 1.322917,-1.322917 5.291666,3.96875 -5.291666,3.968749 -1.322917,-1.322916 3.96875,-2.645834 z"
       id="path4450" />
    <path
       style="fill:#e50011;fill-opacity:1;stroke:none;stroke-width:0.529167;stroke-linecap:round;stroke-linejoin:round;stroke-miterlimit:4;stroke-dasharray:none;stroke-opacity:1;stop-color:#000000"
       d="m 23.812498,55.033328 1.322917,-1.322917 5.291666,3.96875 -5.291666,3.968749 -1.322917,-1.322916 3.96875,-2.645834 z"
       id="path4452" />
    <path
       style="fill:#e50011;fill-opacity:1;stroke:none;stroke-width:0.529167;stroke-linecap:round;stroke-linejoin:round;stroke-miterlimit:4;stroke-dasharray:none;stroke-opacity:1;stop-color:#000000"
       d="m 34.39583,55.033328 1.322917,-1.322917 5.291666,3.96875 -5.291666,3.968749 -1.322917,-1.322916 3.96875,-2.645833 z"
       id="path4454" />
    <path
       style="fill:#e50011;fill-opacity:1;stroke:none;stroke-width:0.529167;stroke-linecap:round;stroke-linejoin:round;stroke-miterlimit:4;stroke-dasharray:none;stroke-opacity:1;stop-color:#000000"
       d="m 44.979162,55.033328 1.322917,-1.322917 5.291666,3.96875 -5.291666,3.968749 -1.322917,-1.322916 3.96875,-2.645834 z"
       id="path4456" />
    <path
       style="fill:#e50011;fill-opacity:1;stroke:none;stroke-width:0.529167;stroke-linecap:round;stroke-linejoin:round;stroke-miterlimit:4;stroke-dasharray:none;stroke-opacity:1;stop-color:#000000"
       d="m 55.562494,55.033328 1.322917,-1.322917 5.291666,3.96875 -5.291666,3.968749 -1.322917,-1.322916 3.96875,-2.645834 z"
       id="path4458" />
    <path
       style="fill:#390105;fill-opacity:1;stroke:none;stroke-width:0.529167;stroke-linecap:round;stroke-linejoin:round;stroke-miterlimit:4;stroke-dasharray:none;stroke-opacity:1;stop-color:#000000"
       d="m 66.145826,55.033328 1.322917,-1.322917 5.291666,3.96875 -5.291666,3.968749 -1.322917,-1.322916 3.96875,-2.645834 z"
       id="path4460" />
    <path
       style="fill:#390105;fill-opacity:1;stroke:none;stroke-width:0.529167;stroke-linecap:round;stroke-linejoin:round;stroke-miterlimit:4;stroke-dasharray:none;stroke-opacity:1;stop-color:#000000"
       d="m 76.729158,55.033328 1.322917,-1.322917 5.291666,3.96875 -5.291666,3.968749 -1.322917,-1.322916 3.96875,-2.645834 z"
       id="path4462" />
    <path
       style="fill:#390105;fill-opacity:1;stroke:none;stroke-width:0.529167;stroke-linecap:round;stroke-linejoin:round;stroke-miterlimit:4;stroke-dasharray:none;stroke-opacity:1;stop-color:#000000"
       d="m 87.31249,55.033328 1.322917,-1.322917 5.291666,3.96875 -5.291666,3.968749 -1.322917,-1.322916 3.96875,-2.645833 z"
       id="path4464" />
    <path
       style="fill:#390105;fill-opacity:1;stroke:none;stroke-width:0.529167;stroke-linecap:round;stroke-linejoin:round;stroke-miterlimit:4;stroke-dasharray:none;stroke-opacity:1;stop-color:#000000"
       d="m 97.895822,55.033328 1.322917,-1.322917 5.291671,3.96875 -5.291671,3.968749 -1.322917,-1.322916 3.968748,-2.645833 z"
       id="path4466" />
    <path
       style="fill:#e50011;fill-opacity:1;stroke:none;stroke-width:0.529167;stroke-linecap:round;stroke-linejoin:round;stroke-miterlimit:4;stroke-dasharray:none;stroke-opacity:1;stop-color:#000000"
       d="M 2.6458332,65.61666 3.96875,64.293743 9.2604163,68.262493 3.96875,72.231242 2.6458332,70.908326 l 3.96875,-2.645834 z"
       id="path4468" />
    <path
       style="fill:#e50011;fill-opacity:1;stroke:none;stroke-width:0.529167;stroke-linecap:round;stroke-linejoin:round;stroke-miterlimit:4;stroke-dasharray:none;stroke-opacity:1;stop-color:#000000"
       d="m 13.229166,65.61666 1.322917,-1.322917 5.291666,3.96875 -5.291666,3.968749 -1.322917,-1.322916 3.96875,-2.645834 z"
       id="path4470" />
    <path
       style="fill:#e50011;fill-opacity:1;stroke:none;stroke-width:0.529167;stroke-linecap:round;stroke-linejoin:round;stroke-miterlimit:4;stroke-dasharray:none;stroke-opacity:1;stop-color:#000000"
       d="m 23.812498,65.61666 1.322917,-1.322917 5.291666,3.96875 -5.291666,3.968749 -1.322917,-1.322916 3.96875,-2.645834 z"
       id="path4472" />
    <path
       style="fill:#e50011;fill-opacity:1;stroke:none;stroke-width:0.529167;stroke-linecap:round;stroke-linejoin:round;stroke-miterlimit:4;stroke-dasharray:none;stroke-opacity:1;stop-color:#000000"
       d="m 34.39583,65.61666 1.322917,-1.322917 5.291666,3.96875 -5.291666,3.968749 -1.322917,-1.322916 3.96875,-2.645833 z"
       id="path4474" />
    <path
       style="fill:#e50011;fill-opacity:1;stroke:none;stroke-width:0.529167;stroke-linecap:round;stroke-linejoin:round;stroke-miterlimit:4;stroke-dasharray:none;stroke-opacity:1;stop-color:#000000"
       d="m 44.979162,65.61666 1.322917,-1.322917 5.291666,3.96875 -5.291666,3.968749 -1.322917,-1.322916 3.96875,-2.645834 z"
       id="path4476" />
    <path
       style="fill:#e50011;fill-opacity:1;stroke:none;stroke-width:0.529167;stroke-linecap:round;stroke-linejoin:round;stroke-miterlimit:4;stroke-dasharray:none;stroke-opacity:1;stop-color:#000000"
       d="m 55.562494,65.61666 1.322917,-1.322917 5.291666,3.96875 -5.291666,3.968749 -1.322917,-1.322916 3.96875,-2.645834 z"
       id="path4478" />
    <path
       style="fill:#e50011;fill-opacity:1;stroke:none;stroke-width:0.529167;stroke-linecap:round;stroke-linejoin:round;stroke-miterlimit:4;stroke-dasharray:none;stroke-opacity:1;stop-color:#000000"
       d="m 66.145826,65.61666 1.322917,-1.322917 5.291666,3.96875 -5.291666,3.968749 -1.322917,-1.322916 3.96875,-2.645834 z"
       id="path4480" />
    <path
       style="fill:#390105;fill-opacity:1;stroke:none;stroke-width:0.529167;stroke-linecap:round;stroke-linejoin:round;stroke-miterlimit:4;stroke-dasharray:none;stroke-opacity:1;stop-color:#000000"
       d="m 76.729158,65.61666 1.322917,-1.322917 5.291666,3.96875 -5.291666,3.968749 -1.322917,-1.322916 3.96875,-2.645834 z"
       id="path4482" />
    <path
       style="fill:#390105;fill-opacity:1;stroke:none;stroke-width:0.529167;stroke-linecap:round;stroke-linejoin:round;stroke-miterlimit:4;stroke-dasharray:none;stroke-opacity:1;stop-color:#000000"
       d="m 87.31249,65.61666 1.322917,-1.322917 5.291666,3.96875 -5.291666,3.968749 -1.322917,-1.322916 3.96875,-2.645833 z"
       id="path4484" />
    <path
       style="fill:#390105;fill-opacity:1;stroke:none;stroke-width:0.529167;stroke-linecap:round;stroke-linejoin:round;stroke-miterlimit:4;stroke-dasharray:none;stroke-opacity:1;stop-color:#000000"
       d="m 97.895822,65.61666 1.322917,-1.322917 5.291671,3.96875 -5.291671,3.968749 -1.322917,-1.322916 3.968748,-2.645833 z"
       id="path4486" />
    <path
       style="fill:#e50011;fill-opacity:1;stroke:none;stroke-width:0.529167;stroke-linecap:round;stroke-linejoin:round;stroke-miterlimit:4;stroke-dasharray:none;stroke-opacity:1;stop-color:#000000"
       d="M 2.6458332,76.199992 3.96875,74.877075 9.2604163,78.845825 3.96875,82.814574 2.6458332,81.491658 l 3.96875,-2.645834 z"
       id="path4488" />
    <path
       style="fill:#e50011;fill-opacity:1;stroke:none;stroke-width:0.529167;stroke-linecap:round;stroke-linejoin:round;stroke-miterlimit:4;stroke-dasharray:none;stroke-opacity:1;stop-color:#000000"
       d="m 13.229166,76.199992 1.322917,-1.322917 5.291666,3.96875 -5.291666,3.968749 -1.322917,-1.322916 3.96875,-2.645834 z"
       id="path4490" />
    <path
       style="fill:#e50011;fill-opacity:1;stroke:none;stroke-width:0.529167;stroke-linecap:round;stroke-linejoin:round;stroke-miterlimit:4;stroke-dasharray:none;stroke-opacity:1;stop-color:#000000"
       d="m 23.812498,76.199992 1.322917,-1.322917 5.291666,3.96875 -5.291666,3.968749 -1.322917,-1.322916 3.96875,-2.645834 z"
       id="path4492" />
    <path
       style="fill:#e50011;fill-opacity:1;stroke:none;stroke-width:0.529167;stroke-linecap:round;stroke-linejoin:round;stroke-miterlimit:4;stroke-dasharray:none;stroke-opacity:1;stop-color:#000000"
       d="m 34.39583,76.199992 1.322917,-1.322917 5.291666,3.96875 -5.291666,3.968749 -1.322917,-1.322916 3.96875,-2.645833 z"
       id="path4494" />
    <path
       style="fill:#e50011;fill-opacity:1;stroke:none;stroke-width:0.529167;stroke-linecap:round;stroke-linejoin:round;stroke-miterlimit:4;stroke-dasharray:none;stroke-opacity:1;stop-color:#000000"
       d="m 44.979162,76.199992 1.322917,-1.322917 5.291666,3.96875 -5.291666,3.968749 -1.322917,-1.322916 3.96875,-2.645834 z"
       id="path4496" />
    <path
       style="fill:#e50011;fill-opacity:1;stroke:none;stroke-width:0.529167;stroke-linecap:round;stroke-linejoin:round;stroke-miterlimit:4;stroke-dasharray:none;stroke-opacity:1;stop-color:#000000"
       d="m 55.562494,76.199992 1.322917,-1.322917 5.291666,3.96875 -5.291666,3.968749 -1.322917,-1.322916 3.96875,-2.645834 z"
       id="path4498" />
    <path
       style="fill:#e50011;fill-opacity:1;stroke:none;stroke-width:0.529167;stroke-linecap:round;stroke-linejoin:round;stroke-miterlimit:4;stroke-dasharray:none;stroke-opacity:1;stop-color:#000000"
       d="m 66.145826,76.199992 1.322917,-1.322917 5.291666,3.96875 -5.291666,3.968749 -1.322917,-1.322916 3.96875,-2.645834 z"
       id="path4500" />
    <path
       style="fill:#e50011;fill-opacity:1;stroke:none;stroke-width:0.529167;stroke-linecap:round;stroke-linejoin:round;stroke-miterlimit:4;stroke-dasharray:none;stroke-opacity:1;stop-color:#000000"
       d="m 76.729158,76.199992 1.322917,-1.322917 5.291666,3.96875 -5.291666,3.968749 -1.322917,-1.322916 3.96875,-2.645834 z"
       id="path4502" />
    <path
       style="fill:#390105;fill-opacity:1;stroke:none;stroke-width:0.529167;stroke-linecap:round;stroke-linejoin:round;stroke-miterlimit:4;stroke-dasharray:none;stroke-opacity:1;stop-color:#000000"
       d="m 87.31249,76.199992 1.322917,-1.322917 5.291666,3.96875 -5.291666,3.968749 -1.322917,-1.322916 3.96875,-2.645833 z"
       id="path4504" />
    <path
       style="fill:#390105;fill-opacity:1;stroke:none;stroke-width:0.529167;stroke-linecap:round;stroke-linejoin:round;stroke-miterlimit:4;stroke-dasharray:none;stroke-opacity:1;stop-color:#000000"
       d="m 97.895822,76.199992 1.322917,-1.322917 5.291671,3.96875 -5.291671,3.968749 -1.322917,-1.322916 3.968748,-2.645833 z"
       id="path4506" />
    <path
       style="fill:#e50011;fill-opacity:1;stroke:none;stroke-width:0.529167;stroke-linecap:round;stroke-linejoin:round;stroke-miterlimit:4;stroke-dasharray:none;stroke-opacity:1;stop-color:#000000"
       d="M 2.6458332,86.783324 3.96875,85.460407 9.2604163,89.429157 3.96875,93.397906 2.6458332,92.07499 l 3.96875,-2.645834 z"
       id="path4508" />
    <path
       style="fill:#e50011;fill-opacity:1;stroke:none;stroke-width:0.529167;stroke-linecap:round;stroke-linejoin:round;stroke-miterlimit:4;stroke-dasharray:none;stroke-opacity:1;stop-color:#000000"
       d="m 13.229166,86.783324 1.322917,-1.322917 5.291666,3.96875 -5.291666,3.968749 -1.322917,-1.322916 3.96875,-2.645834 z"
       id="path4510" />
    <path
       style="fill:#e50011;fill-opacity:1;stroke:none;stroke-width:0.529167;stroke-linecap:round;stroke-linejoin:round;stroke-miterlimit:4;stroke-dasharray:none;stroke-opacity:1;stop-color:#000000"
       d="m 23.812498,86.783324 1.322917,-1.322917 5.291666,3.96875 -5.291666,3.968749 -1.322917,-1.322916 3.96875,-2.645834 z"
       id="path4512" />
    <path
       style="fill:#e50011;fill-opacity:1;stroke:none;stroke-width:0.529167;stroke-linecap:round;stroke-linejoin:round;stroke-miterlimit:4;stroke-dasharray:none;stroke-opacity:1;stop-color:#000000"
       d="m 34.39583,86.783324 1.322917,-1.322917 5.291666,3.96875 -5.291666,3.968749 -1.322917,-1.322916 3.96875,-2.645833 z"
       id="path4514" />
    <path
       style="fill:#e50011;fill-opacity:1;stroke:none;stroke-width:0.529167;stroke-linecap:round;stroke-linejoin:round;stroke-miterlimit:4;stroke-dasharray:none;stroke-opacity:1;stop-color:#000000"
       d="m 44.979162,86.783324 1.322917,-1.322917 5.291666,3.96875 -5.291666,3.968749 -1.322917,-1.322916 3.96875,-2.645834 z"
       id="path4516" />
    <path
       style="fill:#e50011;fill-opacity:1;stroke:none;stroke-width:0.529167;stroke-linecap:round;stroke-linejoin:round;stroke-miterlimit:4;stroke-dasharray:none;stroke-opacity:1;stop-color:#000000"
       d="m 55.562494,86.783324 1.322917,-1.322917 5.291666,3.96875 -5.291666,3.968749 -1.322917,-1.322916 3.96875,-2.645834 z"
       id="path4518" />
    <path
       style="fill:#e50011;fill-opacity:1;stroke:none;stroke-width:0.529167;stroke-linecap:round;stroke-linejoin:round;stroke-miterlimit:4;stroke-dasharray:none;stroke-opacity:1;stop-color:#000000"
       d="m 66.145826,86.783324 1.322917,-1.322917 5.291666,3.96875 -5.291666,3.968749 -1.322917,-1.322916 3.96875,-2.645834 z"
       id="path4520" />
    <path
       style="fill:#e50011;fill-opacity:1;stroke:none;stroke-width:0.529167;stroke-linecap:round;stroke-linejoin:round;stroke-miterlimit:4;stroke-dasharray:none;stroke-opacity:1;stop-color:#000000"
       d="m 76.729158,86.783324 1.322917,-1.322917 5.291666,3.96875 -5.291666,3.968749 -1.322917,-1.322916 3.96875,-2.645834 z"
       id="path4522" />
    <path
       style="fill:#e50011;fill-opacity:1;stroke:none;stroke-width:0.529167;stroke-linecap:round;stroke-linejoin:round;stroke-miterlimit:4;stroke-dasharray:none;stroke-opacity:1;stop-color:#000000"
       d="m 87.31249,86.783324 1.322917,-1.322917 5.291666,3.96875 -5.291666,3.968749 -1.322917,-1.322916 3.96875,-2.645833 z"
       id="path4524" />
    <path
       style="fill:#390105;fill-opacity:1;stroke:none;stroke-width:0.529167;stroke-linecap:round;stroke-linejoin:round;stroke-miterlimit:4;stroke-dasharray:none;stroke-opacity:1;stop-color:#000000"
       d="m 97.895822,86.783324 1.322917,-1.322917 5.291671,3.96875 -5.291671,3.968749 -1.322917,-1.322916 3.968748,-2.645833 z"
       id="path4526" />
    <path
       style="fill:#e50011;fill-opacity:1;stroke:none;stroke-width:0.529167;stroke-linecap:round;stroke-linejoin:round;stroke-miterlimit:4;stroke-dasharray:none;stroke-opacity:1;stop-color:#000000"
       d="m 2.6458332,97.366656 1.3229168,-1.322917 5.2916663,3.968751 -5.2916663,3.96875 -1.3229168,-1.32292 3.96875,-2.64583 z"
       id="path4528" />
    <path
       style="fill:#e50011;fill-opacity:1;stroke:none;stroke-width:0.529167;stroke-linecap:round;stroke-linejoin:round;stroke-miterlimit:4;stroke-dasharray:none;stroke-opacity:1;stop-color:#000000"
       d="m 13.229166,97.366656 1.322917,-1.322917 5.291666,3.968751 -5.291666,3.96875 -1.322917,-1.32292 3.96875,-2.64583 z"
       id="path4530" />
    <path
       style="fill:#e50011;fill-opacity:1;stroke:none;stroke-width:0.529167;stroke-linecap:round;stroke-linejoin:round;stroke-miterlimit:4;stroke-dasharray:none;stroke-opacity:1;stop-color:#000000"
       d="m 23.812498,97.366656 1.322917,-1.322917 5.291666,3.968751 -5.291666,3.96875 -1.322917,-1.32292 3.96875,-2.64583 z"
       id="path4532" />
    <path
       style="fill:#e50011;fill-opacity:1;stroke:none;stroke-width:0.529167;stroke-linecap:round;stroke-linejoin:round;stroke-miterlimit:4;stroke-dasharray:none;stroke-opacity:1;stop-color:#000000"
       d="m 34.39583,97.366656 1.322917,-1.322917 5.291666,3.968751 -5.291666,3.96875 -1.322917,-1.32292 3.96875,-2.64583 z"
       id="path4534" />
    <path
       style="fill:#e50011;fill-opacity:1;stroke:none;stroke-width:0.529167;stroke-linecap:round;stroke-linejoin:round;stroke-miterlimit:4;stroke-dasharray:none;stroke-opacity:1;stop-color:#000000"
       d="m 44.979162,97.366656 1.322917,-1.322917 5.291666,3.968751 -5.291666,3.96875 -1.322917,-1.32292 3.96875,-2.64583 z"
       id="path4536" />
    <path
       style="fill:#e50011;fill-opacity:1;stroke:none;stroke-width:0.529167;stroke-linecap:round;stroke-linejoin:round;stroke-miterlimit:4;stroke-dasharray:none;stroke-opacity:1;stop-color:#000000"
       d="m 55.562494,97.366656 1.322917,-1.322917 5.291666,3.968751 -5.291666,3.96875 -1.322917,-1.32292 3.96875,-2.64583 z"
       id="path4538" />
    <path
       style="fill:#e50011;fill-opacity:1;stroke:none;stroke-width:0.529167;stroke-linecap:round;stroke-linejoin:round;stroke-miterlimit:4;stroke-dasharray:none;stroke-opacity:1;stop-color:#000000"
       d="m 66.145826,97.366656 1.322917,-1.322917 5.291666,3.968751 -5.291666,3.96875 -1.322917,-1.32292 3.96875,-2.64583 z"
       id="path4540" />
    <path
       style="fill:#e50011;fill-opacity:1;stroke:none;stroke-width:0.529167;stroke-linecap:round;stroke-linejoin:round;stroke-miterlimit:4;stroke-dasharray:none;stroke-opacity:1;stop-color:#000000"
       d="m 76.729158,97.366656 1.322917,-1.322917 5.291666,3.968751 -5.291666,3.96875 -1.322917,-1.32292 3.96875,-2.64583 z"
       id="path4542" />
    <path
       style="fill:#e50011;fill-opacity:1;stroke:none;stroke-width:0.529167;stroke-linecap:round;stroke-linejoin:round;stroke-miterlimit:4;stroke-dasharray:none;stroke-opacity:1;stop-color:#000000"
       d="m 87.31249,97.366656 1.322917,-1.322917 5.291666,3.968751 -5.291666,3.96875 -1.322917,-1.32292 3.96875,-2.64583 z"
       id="path4544" />
    <path
       style="fill:#e50011;fill-opacity:1;stroke:none;stroke-width:0.529167;stroke-linecap:round;stroke-linejoin:round;stroke-miterlimit:4;stroke-dasharray:none;stroke-opacity:1;stop-color:#000000"
       d="m 97.895822,97.366656 1.322917,-1.322917 5.291671,3.968751 -5.291671,3.96875 -1.322917,-1.32292 3.968748,-2.64583 z"
       id="path4546" />
  </g>
  <inkscape:templateinfo>
    <inkscape:name>500x500</inkscape:name>
    <inkscape:date>2022-01-21</inkscape:date>
  </inkscape:templateinfo>
</svg>
